<?xml version="1.0" encoding="UTF-8"?>
<svg xmlns="http://www.w3.org/2000/svg" xmlns:xlink="http://www.w3.org/1999/xlink" width="30pt" height="30pt" viewBox="0 0 30 30" version="1.1">
<g id="surface1">
<path style=" stroke:none;fill-rule:nonzero;fill:rgb(100%,80%,0%);fill-opacity:1;" d="M 13.394531 2.769531 L 2.210938 7.398438 C 1.589844 7.65625 1.59375 8.539062 2.222656 8.785156 L 13.453125 13.238281 C 14.441406 13.632812 15.539062 13.632812 16.523438 13.238281 L 27.757812 8.785156 C 28.382812 8.539062 28.390625 7.652344 27.765625 7.398438 L 16.582031 2.769531 C 15.5625 2.347656 14.414062 2.347656 13.394531 2.769531 "/>
<path style=" stroke:none;fill-rule:nonzero;fill:rgb(19.215686%,76.078431%,94.901961%);fill-opacity:1;" d="M 15.984375 15.671875 L 15.984375 26.796875 C 15.984375 27.046875 16.109375 27.277344 16.3125 27.417969 C 16.519531 27.558594 16.78125 27.585938 17.011719 27.496094 L 29.527344 22.636719 C 29.8125 22.523438 30 22.246094 30 21.941406 L 30 10.8125 C 30 10.566406 29.875 10.335938 29.671875 10.195312 C 29.464844 10.054688 29.207031 10.027344 28.972656 10.117188 L 16.457031 14.976562 C 16.171875 15.089844 15.984375 15.363281 15.984375 15.671875 "/>
<path style=" stroke:none;fill-rule:nonzero;fill:rgb(92.941176%,18.823529%,28.627451%);fill-opacity:1;" d="M 13.0625 16.246094 L 8.972656 18.222656 L 1.132812 21.980469 C 0.636719 22.21875 0 21.855469 0 21.304688 L 0 10.859375 C 0 10.660156 0.101562 10.488281 0.242188 10.359375 C 0.296875 10.304688 0.359375 10.253906 0.429688 10.21875 C 0.617188 10.105469 0.886719 10.074219 1.113281 10.164062 L 13.003906 14.875 C 13.613281 15.117188 13.660156 15.960938 13.066406 16.246094 "/>
<path style=" stroke:none;fill-rule:nonzero;fill:rgb(77.647059%,15.686275%,25.882353%);fill-opacity:1;" d="M 13.0625 16.246094 L 9.351562 18.039062 L 0.238281 10.359375 C 0.296875 10.300781 0.359375 10.253906 0.429688 10.214844 C 0.617188 10.101562 0.882812 10.074219 1.113281 10.164062 L 13 14.875 C 13.609375 15.113281 13.65625 15.960938 13.0625 16.246094 "/>
</g>
</svg>
