<?xml version="1.0" encoding="UTF-8"?>
<svg xmlns="http://www.w3.org/2000/svg" xmlns:xlink="http://www.w3.org/1999/xlink" width="30pt" height="29pt" viewBox="0 0 30 29" version="1.1">
<g id="surface1">
<path style=" stroke:none;fill-rule:nonzero;fill:rgb(0%,0%,0%);fill-opacity:1;" d="M 14.640625 0.0195312 C 14.582031 0.0234375 14.371094 0.0390625 14.167969 0.0546875 C 11.617188 0.242188 9.035156 1.179688 6.917969 2.6875 C 6.214844 3.183594 5.664062 3.648438 5.046875 4.261719 C 1.5 7.792969 0.0390625 12.839844 1.148438 17.746094 C 1.601562 19.757812 2.570312 21.785156 3.855469 23.410156 C 5.871094 25.96875 8.632812 27.769531 11.734375 28.550781 C 12.996094 28.871094 14.042969 29 15.367188 29 C 16.671875 29 17.632812 28.882812 18.875 28.582031 C 20.660156 28.144531 22.230469 27.429688 23.800781 26.335938 C 25.304688 25.285156 26.703125 23.816406 27.710938 22.230469 C 29.003906 20.183594 29.742188 17.921875 29.921875 15.441406 C 29.960938 14.917969 29.9375 13.625 29.878906 13.09375 C 29.769531 12.039062 29.484375 10.644531 29.316406 10.351562 C 29.25 10.238281 29.066406 10.089844 28.925781 10.042969 C 28.878906 10.027344 28.773438 10.015625 28.683594 10.015625 C 28.304688 10.015625 27.980469 10.332031 27.980469 10.703125 C 27.980469 10.792969 28.023438 11.003906 28.082031 11.238281 C 28.585938 13.1875 28.625 15.332031 28.195312 17.289062 C 27.644531 19.796875 26.417969 22.007812 24.5625 23.820312 C 23.699219 24.664062 22.867188 25.285156 21.789062 25.898438 C 19.273438 27.332031 16.144531 27.875 13.210938 27.386719 C 10.984375 27.019531 9.050781 26.167969 7.210938 24.746094 C 6.347656 24.078125 5.296875 22.976562 4.644531 22.050781 C 3.515625 20.460938 2.808594 18.78125 2.441406 16.832031 C 2.253906 15.839844 2.191406 14.523438 2.277344 13.449219 C 2.410156 11.820312 2.820312 10.3125 3.515625 8.878906 C 3.835938 8.210938 4.035156 7.867188 4.421875 7.289062 C 5.207031 6.109375 6.246094 5.003906 7.394531 4.125 C 8.746094 3.09375 10.34375 2.3125 11.964844 1.890625 C 12.835938 1.664062 13.535156 1.546875 14.421875 1.484375 C 17.632812 1.257812 20.75 2.175781 23.292969 4.097656 C 23.480469 4.242188 23.679688 4.394531 23.734375 4.445312 L 23.828125 4.527344 L 23.792969 4.632812 C 23.59375 5.179688 23.742188 5.863281 24.152344 6.339844 C 24.367188 6.582031 24.746094 6.8125 25.070312 6.886719 C 25.292969 6.941406 25.679688 6.941406 25.902344 6.886719 C 26.46875 6.753906 27 6.269531 27.167969 5.730469 C 27.359375 5.128906 27.246094 4.539062 26.859375 4.054688 C 26.433594 3.523438 25.695312 3.285156 25.015625 3.460938 L 24.867188 3.5 L 24.660156 3.328125 C 23.808594 2.621094 22.78125 1.96875 21.703125 1.449219 C 19.949219 0.601562 18.1875 0.148438 16.179688 0.0273438 C 15.796875 0.00390625 14.886719 0 14.640625 0.0195312 Z M 14.640625 0.0195312 "/>
<path style=" stroke:none;fill-rule:nonzero;fill:rgb(0%,0%,0%);fill-opacity:1;" d="M 13.128906 8.359375 C 12.859375 9.054688 12.273438 10.574219 11.824219 11.738281 C 11.371094 12.902344 10.445312 15.292969 9.765625 17.046875 C 9.089844 18.804688 8.523438 20.25 8.519531 20.261719 C 8.511719 20.273438 9.226562 20.28125 10.109375 20.28125 L 11.710938 20.28125 L 11.804688 20.019531 C 11.859375 19.878906 12.046875 19.375 12.222656 18.902344 L 12.542969 18.050781 L 14.949219 18.050781 C 16.867188 18.050781 17.355469 18.042969 17.347656 18.015625 C 17.324219 17.949219 16.929688 16.832031 16.722656 16.238281 L 16.496094 15.605469 L 14.90625 15.589844 L 13.3125 15.578125 L 14.347656 12.742188 C 14.96875 11.039062 15.390625 9.921875 15.398438 9.949219 C 15.410156 9.972656 15.820312 11.140625 16.320312 12.542969 C 16.816406 13.949219 17.636719 16.261719 18.140625 17.683594 L 19.054688 20.269531 L 20.652344 20.277344 C 21.527344 20.277344 22.246094 20.277344 22.246094 20.269531 C 22.246094 20.265625 22.039062 19.726562 21.785156 19.074219 C 21.53125 18.421875 20.984375 17.011719 20.574219 15.945312 C 20.160156 14.878906 19.695312 13.683594 19.539062 13.285156 C 19.386719 12.886719 19.121094 12.195312 18.945312 11.75 C 18.773438 11.304688 18.324219 10.136719 17.941406 9.152344 C 17.558594 8.167969 17.222656 7.304688 17.195312 7.230469 L 17.148438 7.101562 L 13.617188 7.101562 Z M 13.128906 8.359375 "/>
</g>
</svg>
