<?xml version="1.0" encoding="UTF-8"?>
<svg xmlns="http://www.w3.org/2000/svg" xmlns:xlink="http://www.w3.org/1999/xlink" width="30pt" height="26pt" viewBox="0 0 30 26" version="1.1">
<g id="surface1">
<path style=" stroke:none;fill-rule:nonzero;fill:rgb(50.196078%,50.196078%,94.901961%);fill-opacity:1;" d="M 9.136719 9.308594 L 14.828125 6.070312 C 14.972656 5.988281 15.144531 5.988281 15.289062 6.070312 L 20.980469 9.308594 C 21.121094 9.390625 21.210938 9.542969 21.210938 9.703125 L 21.210938 16.183594 C 21.210938 16.347656 21.121094 16.496094 20.980469 16.578125 L 15.289062 19.816406 C 15.144531 19.898438 14.972656 19.898438 14.828125 19.816406 L 9.136719 16.578125 C 8.992188 16.496094 8.90625 16.347656 8.90625 16.183594 L 8.90625 9.703125 C 8.90625 9.542969 8.996094 9.390625 9.136719 9.308594 "/>
<path style=" stroke:none;fill-rule:nonzero;fill:rgb(29.411765%,19.607843%,76.470588%);fill-opacity:1;" d="M 29.816406 12.414062 L 23.007812 0.734375 C 22.757812 0.3125 22.300781 0 21.808594 0 L 8.191406 0 C 7.699219 0 7.242188 0.3125 6.992188 0.734375 L 0.183594 12.386719 C -0.0625 12.808594 -0.0625 13.34375 0.183594 13.765625 L 6.992188 25.347656 C 7.242188 25.769531 7.699219 25.984375 8.191406 25.984375 L 21.808594 25.984375 C 22.300781 25.984375 22.757812 25.777344 23.007812 25.355469 L 29.8125 13.753906 C 30.0625 13.328125 30.0625 12.835938 29.816406 12.414062 Z M 24.175781 18.027344 C 24.175781 18.199219 24.074219 18.359375 23.921875 18.445312 L 15.25 23.378906 C 15.097656 23.464844 14.910156 23.464844 14.757812 23.378906 L 6.082031 18.445312 C 5.929688 18.359375 5.824219 18.199219 5.824219 18.027344 L 5.824219 8.160156 C 5.824219 7.988281 5.929688 7.832031 6.078125 7.746094 L 14.75 2.8125 C 14.902344 2.726562 15.089844 2.726562 15.242188 2.8125 L 23.921875 7.746094 C 24.070312 7.832031 24.175781 7.988281 24.175781 8.160156 Z M 24.175781 18.027344 "/>
</g>
</svg>
