<?xml version="1.0" encoding="UTF-8"?>
<svg xmlns="http://www.w3.org/2000/svg" xmlns:xlink="http://www.w3.org/1999/xlink" width="30pt" height="30pt" viewBox="0 0 30 30" version="1.1">
<g id="surface1">
<path style=" stroke:none;fill-rule:nonzero;fill:rgb(20%,20%,20%);fill-opacity:1;" d="M 0 15 C 0 6.714844 6.714844 0 15 0 C 23.285156 0 30 6.714844 30 15 C 30 23.285156 23.285156 30 15 30 C 6.714844 30 0 23.285156 0 15 Z M 0 15 "/>
<path style=" stroke:none;fill-rule:nonzero;fill:rgb(3.921569%,81.176471%,51.372549%);fill-opacity:1;" d="M 12 24 C 13.65625 24 15 22.65625 15 21 L 15 18 L 12 18 C 10.34375 18 9 19.34375 9 21 C 9 22.65625 10.34375 24 12 24 Z M 12 24 "/>
<path style=" stroke:none;fill-rule:nonzero;fill:rgb(63.529412%,34.901961%,100%);fill-opacity:1;" d="M 9 15 C 9 13.34375 10.34375 12 12 12 L 15 12 L 15 18 L 12 18 C 10.34375 18 9 16.65625 9 15 Z M 9 15 "/>
<path style=" stroke:none;fill-rule:nonzero;fill:rgb(94.901961%,30.588235%,11.764706%);fill-opacity:1;" d="M 9 9 C 9 7.34375 10.34375 6 12 6 L 15 6 L 15 12 L 12 12 C 10.34375 12 9 10.65625 9 9 Z M 9 9 "/>
<path style=" stroke:none;fill-rule:nonzero;fill:rgb(100%,44.705882%,38.431373%);fill-opacity:1;" d="M 15 6 L 18 6 C 19.65625 6 21 7.34375 21 9 C 21 10.65625 19.65625 12 18 12 L 15 12 Z M 15 6 "/>
<path style=" stroke:none;fill-rule:nonzero;fill:rgb(10.196078%,73.72549%,99.607843%);fill-opacity:1;" d="M 21 15 C 21 16.65625 19.65625 18 18 18 C 16.34375 18 15 16.65625 15 15 C 15 13.34375 16.34375 12 18 12 C 19.65625 12 21 13.34375 21 15 Z M 21 15 "/>
</g>
</svg>
