<?xml version="1.0" encoding="UTF-8"?>
<svg xmlns="http://www.w3.org/2000/svg" xmlns:xlink="http://www.w3.org/1999/xlink" width="30pt" height="30pt" viewBox="0 0 30 30" version="1.1">
<g id="surface1">
<path style=" stroke:none;fill-rule:nonzero;fill:rgb(100%,62.745098%,0%);fill-opacity:1;" d="M 18.394531 10.835938 L 15.390625 13.628906 L 12.605469 8.007812 L 14.046875 4.777344 C 14.421875 4.121094 15.007812 4.128906 15.371094 4.777344 Z M 18.394531 10.835938 "/>
<path style=" stroke:none;fill-rule:nonzero;fill:rgb(96.078431%,49.803922%,9.019608%);fill-opacity:1;" d="M 12.605469 8.007812 L 15.390625 13.628906 L 4.167969 24.070312 Z M 12.605469 8.007812 "/>
<path style=" stroke:none;fill-rule:nonzero;fill:rgb(100%,79.215686%,15.686275%);fill-opacity:1;" d="M 21.679688 6.566406 C 22.214844 6.050781 22.769531 6.226562 22.910156 6.957031 L 25.832031 23.929688 L 16.148438 29.742188 C 15.8125 29.929688 14.910156 30.011719 14.910156 30.011719 C 14.910156 30.011719 14.09375 29.914062 13.78125 29.730469 L 4.167969 24.070312 Z M 21.679688 6.566406 "/>
<path style=" stroke:none;fill-rule:nonzero;fill:rgb(100%,62.745098%,0%);fill-opacity:1;" d="M 12.605469 8.007812 L 4.171875 24.070312 L 7.925781 0.597656 C 8.066406 -0.132812 8.480469 -0.203125 8.851562 0.441406 Z M 12.605469 8.007812 "/>
</g>
</svg>
