<?xml version="1.0" encoding="UTF-8"?>
<svg xmlns="http://www.w3.org/2000/svg" xmlns:xlink="http://www.w3.org/1999/xlink" width="30pt" height="33pt" viewBox="0 0 30 33" version="1.1">
<g id="surface1">
<path style=" stroke:none;fill-rule:evenodd;fill:rgb(89.803922%,20.784314%,67.058824%);fill-opacity:1;" d="M 17.878906 3.777344 L 24.8125 7.691406 C 25.011719 7.484375 25.242188 7.304688 25.492188 7.164062 C 26.929688 6.355469 28.765625 6.835938 29.597656 8.242188 C 30.425781 9.644531 29.933594 11.4375 28.496094 12.253906 C 28.246094 12.394531 27.976562 12.5 27.695312 12.566406 L 27.695312 20.394531 C 27.972656 20.460938 28.242188 20.566406 28.488281 20.703125 C 29.933594 21.519531 30.425781 23.3125 29.589844 24.71875 C 28.765625 26.125 26.921875 26.605469 25.484375 25.796875 C 25.207031 25.640625 24.953125 25.441406 24.742188 25.207031 L 17.851562 29.09375 C 17.953125 29.394531 18.003906 29.707031 18.003906 30.019531 C 18.003906 31.636719 16.660156 32.957031 15 32.957031 C 13.339844 32.957031 11.996094 31.644531 11.996094 30.019531 C 11.996094 29.730469 12.039062 29.453125 12.117188 29.1875 L 5.1875 25.277344 C 4.988281 25.480469 4.765625 25.65625 4.515625 25.796875 C 3.070312 26.605469 1.234375 26.125 0.410156 24.71875 C -0.417969 23.3125 0.0742188 21.519531 1.511719 20.703125 C 1.757812 20.566406 2.027344 20.460938 2.304688 20.394531 L 2.304688 12.566406 C 2.023438 12.5 1.753906 12.394531 1.503906 12.253906 C 0.0664062 11.445312 -0.425781 9.644531 0.402344 8.242188 C 1.226562 6.835938 3.070312 6.355469 4.507812 7.164062 C 4.757812 7.304688 4.984375 7.480469 5.1875 7.6875 L 12.117188 3.773438 C 12.035156 3.503906 11.996094 3.222656 11.996094 2.9375 C 11.996094 1.316406 13.339844 0 15 0 C 16.660156 0 18.003906 1.316406 18.003906 2.9375 C 18.003906 3.230469 17.960938 3.511719 17.878906 3.777344 Z M 17.15625 4.984375 L 24.105469 8.90625 C 23.882812 9.667969 23.984375 10.488281 24.390625 11.175781 C 24.8125 11.898438 25.503906 12.375 26.269531 12.558594 L 26.269531 20.398438 C 26.230469 20.40625 26.191406 20.417969 26.152344 20.429688 L 17.078125 5.0625 C 17.105469 5.035156 17.132812 5.011719 17.15625 4.984375 Z M 12.925781 5.0625 L 3.851562 20.429688 C 3.8125 20.417969 3.773438 20.40625 3.730469 20.398438 L 3.730469 12.558594 C 4.496094 12.375 5.1875 11.898438 5.609375 11.175781 C 6.015625 10.488281 6.117188 9.667969 5.894531 8.902344 L 12.839844 4.980469 C 12.867188 5.007812 12.894531 5.035156 12.925781 5.0625 Z M 15.839844 5.761719 L 24.910156 21.121094 C 24.703125 21.316406 24.527344 21.539062 24.382812 21.78125 C 24.238281 22.023438 24.132812 22.285156 24.066406 22.554688 L 5.933594 22.554688 C 5.867188 22.285156 5.761719 22.023438 5.617188 21.78125 C 5.472656 21.539062 5.296875 21.320312 5.089844 21.125 L 14.164062 5.761719 C 14.433594 5.835938 14.71875 5.875 15 5.875 C 15.292969 5.875 15.574219 5.835938 15.839844 5.761719 Z M 17.222656 28.042969 L 24.125 24.144531 C 24.105469 24.082031 24.085938 24.015625 24.070312 23.953125 L 5.929688 23.953125 C 5.921875 23.992188 5.910156 24.027344 5.898438 24.066406 L 12.835938 27.980469 C 13.402344 27.40625 14.183594 27.082031 15 27.082031 C 15.847656 27.082031 16.652344 27.429688 17.222656 28.042969 Z M 17.222656 28.042969 "/>
</g>
</svg>
