<?xml version="1.0" encoding="UTF-8"?>
<svg xmlns="http://www.w3.org/2000/svg" xmlns:xlink="http://www.w3.org/1999/xlink" width="30pt" height="30pt" viewBox="0 0 30 30" version="1.1">
<g id="surface1">
<path style=" stroke:none;fill-rule:nonzero;fill:rgb(26.666667%,0%,60%);fill-opacity:1;" d="M 4.5 0 L 25.5 0 C 27.984375 0 30 2.015625 30 4.5 L 30 25.5 C 30 27.984375 27.984375 30 25.5 30 L 4.5 30 C 2.015625 30 0 27.984375 0 25.5 L 0 4.5 C 0 2.015625 2.015625 0 4.5 0 Z M 4.5 0 "/>
<path style="fill-rule:nonzero;fill:rgb(26.666667%,0%,60%);fill-opacity:1;stroke-width:16;stroke-linecap:butt;stroke-linejoin:miter;stroke:rgb(100%,100%,100%);stroke-opacity:1;stroke-miterlimit:4;" d="M 367 99 L 145 99 C 123 99 115 107 115 129 L 115 383 C 115 405 123 413 145 413 L 367 413 C 389 413 397 405 397 383 L 397 129 C 397 107 388 99 367 99 " transform="matrix(0.0585938,0,0,0.0585938,0,0)"/>
<path style=" stroke:none;fill-rule:nonzero;fill:rgb(100%,100%,100%);fill-opacity:1;" d="M 10.664062 16.640625 C 13.945312 15 16.171875 14.824219 16.933594 15.175781 C 17.460938 15.410156 17.460938 16.054688 17.460938 16.054688 L 17.460938 21.855469 L 19.394531 21.855469 L 19.394531 15.996094 C 19.394531 15.996094 19.335938 14.121094 17.8125 13.417969 C 16.289062 12.714844 14.179688 13.359375 12.65625 13.769531 L 12.65625 8.203125 L 10.664062 8.203125 M 17.929688 11.367188 C 17.929688 11.367188 19.21875 10.078125 19.394531 8.203125 L 17.402344 8.203125 C 17.109375 9.902344 15.9375 11.367188 15.9375 11.367188 M 10.664062 21.796875 L 12.832031 19.863281 L 10.664062 17.929688 "/>
</g>
</svg>
