<?xml version="1.0" encoding="UTF-8"?>
<svg xmlns="http://www.w3.org/2000/svg" xmlns:xlink="http://www.w3.org/1999/xlink" width="30pt" height="30pt" viewBox="0 0 30 30" version="1.1">
<g id="surface1">
<path style=" stroke:none;fill-rule:evenodd;fill:rgb(26.27451%,60%,20.392157%);fill-opacity:1;" d="M 20.632812 10.035156 C 21.011719 11.121094 21.28125 12.234375 21.371094 13.382812 C 21.480469 14.8125 21.429688 16.230469 21.128906 17.636719 C 21.121094 17.675781 21.101562 17.710938 21.089844 17.75 C 20.996094 17.75 20.898438 17.738281 20.808594 17.753906 C 20.027344 17.875 19.246094 18 18.46875 18.128906 C 17.664062 18.257812 16.855469 18.382812 16.050781 18.523438 C 15.765625 18.574219 15.414062 18.515625 15.296875 18.90625 C 15.292969 18.917969 15.261719 18.921875 15.242188 18.925781 L 15.28125 16.570312 C 15.269531 14.675781 15.253906 12.78125 15.242188 10.886719 L 15.617188 10.824219 C 16.230469 10.722656 16.847656 10.621094 17.460938 10.523438 C 18.195312 10.40625 18.929688 10.292969 19.660156 10.179688 C 19.984375 10.128906 20.308594 10.082031 20.632812 10.035156 Z M 20.632812 10.035156 "/>
<path style=" stroke:none;fill-rule:evenodd;fill:rgb(27.058824%,64.705882%,21.960784%);fill-opacity:1;" d="M 14.46875 25.792969 C 14.070312 25.453125 13.660156 25.128906 13.28125 24.769531 C 11.238281 22.84375 9.746094 20.574219 9.007812 17.839844 C 8.804688 17.085938 8.671875 16.324219 8.628906 15.546875 C 8.597656 15 8.554688 14.453125 8.589844 13.910156 C 8.695312 12.46875 8.902344 11.042969 9.324219 9.65625 L 9.347656 9.625 C 9.386719 9.679688 9.449219 9.726562 9.46875 9.789062 C 9.878906 11.003906 10.289062 12.21875 10.695312 13.433594 C 11.976562 17.253906 13.253906 21.074219 14.535156 24.894531 C 14.558594 24.96875 14.625 25.03125 14.671875 25.097656 Z M 14.46875 25.792969 "/>
<path style=" stroke:none;fill-rule:evenodd;fill:rgb(27.45098%,62.745098%,21.568627%);fill-opacity:1;" d="M 20.632812 10.035156 C 20.308594 10.082031 19.984375 10.128906 19.660156 10.179688 C 18.925781 10.292969 18.195312 10.40625 17.460938 10.523438 C 16.84375 10.621094 16.230469 10.722656 15.617188 10.820312 L 15.242188 10.886719 L 15.238281 10.640625 C 15.226562 10.441406 15.207031 10.238281 15.203125 10.039062 C 15.1875 8.753906 15.175781 7.46875 15.160156 6.1875 C 15.152344 5.382812 15.136719 4.578125 15.121094 3.777344 C 15.109375 3.277344 15.097656 2.777344 15.078125 2.277344 C 15.0625 2.011719 15.019531 1.742188 15.003906 1.476562 C 14.992188 1.320312 15.007812 1.167969 15.011719 1.011719 C 15.203125 1.382812 15.390625 1.757812 15.585938 2.125 C 15.898438 2.707031 16.394531 3.136719 16.839844 3.605469 C 18.601562 5.453125 19.855469 7.605469 20.632812 10.035156 Z M 20.632812 10.035156 "/>
<path style=" stroke:none;fill-rule:evenodd;fill:rgb(25.098039%,58.039216%,20%);fill-opacity:1;" d="M 15.242188 18.925781 C 15.261719 18.921875 15.292969 18.917969 15.296875 18.90625 C 15.414062 18.511719 15.765625 18.574219 16.050781 18.523438 C 16.855469 18.382812 17.660156 18.257812 18.46875 18.128906 C 19.246094 18 20.027344 17.875 20.808594 17.75 C 20.898438 17.738281 20.996094 17.75 21.089844 17.75 C 20.945312 18.269531 20.828125 18.800781 20.644531 19.308594 C 20.433594 19.882812 20.179688 20.441406 19.910156 20.988281 C 19.507812 21.8125 19.003906 22.578125 18.421875 23.277344 C 17.972656 23.820312 17.472656 24.320312 16.96875 24.8125 C 16.691406 25.085938 16.363281 25.308594 16.058594 25.554688 L 15.980469 25.5 L 15.695312 25.257812 L 15.402344 24.613281 C 15.199219 23.855469 15.089844 23.085938 15.074219 22.304688 L 15.078125 22.175781 L 15.121094 21.605469 C 15.132812 21.410156 15.152344 21.21875 15.160156 21.023438 C 15.1875 20.324219 15.214844 19.625 15.242188 18.925781 Z M 15.242188 18.925781 "/>
<path style=" stroke:none;fill-rule:evenodd;fill:rgb(30.980392%,66.666667%,25.490196%);fill-opacity:1;" d="M 15.242188 18.925781 C 15.214844 19.625 15.1875 20.324219 15.160156 21.023438 C 15.152344 21.21875 15.132812 21.410156 15.121094 21.605469 L 14.941406 21.671875 C 14.542969 20.5 14.144531 19.339844 13.753906 18.179688 C 13.109375 16.253906 12.472656 14.328125 11.828125 12.402344 C 11.308594 10.847656 10.785156 9.296875 10.257812 7.746094 C 10.234375 7.675781 10.164062 7.617188 10.113281 7.554688 L 11.261719 5.441406 C 11.300781 5.511719 11.351562 5.574219 11.378906 5.648438 C 11.910156 7.21875 12.4375 8.792969 12.964844 10.363281 C 13.648438 12.410156 14.328125 14.457031 15.011719 16.503906 C 15.035156 16.585938 15.082031 16.660156 15.125 16.753906 L 15.28125 16.570312 C 15.269531 17.355469 15.253906 18.140625 15.242188 18.925781 Z M 15.242188 18.925781 "/>
<path style=" stroke:none;fill-rule:evenodd;fill:rgb(29.019608%,65.490196%,23.529412%);fill-opacity:1;" d="M 10.113281 7.554688 C 10.164062 7.617188 10.234375 7.675781 10.257812 7.746094 C 10.785156 9.296875 11.308594 10.851562 11.828125 12.402344 C 12.472656 14.328125 13.109375 16.253906 13.753906 18.179688 C 14.144531 19.339844 14.542969 20.5 14.941406 21.671875 L 15.121094 21.605469 L 15.078125 22.175781 L 15.042969 22.304688 C 14.980469 22.929688 14.929688 23.550781 14.851562 24.171875 C 14.816406 24.484375 14.734375 24.789062 14.671875 25.097656 C 14.625 25.03125 14.558594 24.96875 14.535156 24.894531 C 13.253906 21.074219 11.976562 17.253906 10.695312 13.433594 C 10.289062 12.21875 9.878906 11.003906 9.46875 9.789062 C 9.449219 9.726562 9.390625 9.679688 9.347656 9.625 C 9.601562 8.933594 9.859375 8.242188 10.113281 7.554688 Z M 10.113281 7.554688 "/>
<path style=" stroke:none;fill-rule:evenodd;fill:rgb(34.117647%,68.235294%,27.843137%);fill-opacity:1;" d="M 15.28125 16.570312 L 15.125 16.753906 C 15.082031 16.660156 15.035156 16.585938 15.007812 16.503906 C 14.328125 14.457031 13.648438 12.410156 12.964844 10.363281 C 12.4375 8.792969 11.910156 7.21875 11.378906 5.648438 C 11.351562 5.574219 11.300781 5.511719 11.261719 5.441406 L 12.679688 3.578125 C 12.726562 3.636719 12.789062 3.691406 12.8125 3.757812 C 13.207031 4.910156 13.597656 6.066406 13.984375 7.21875 C 14.347656 8.300781 14.703125 9.378906 15.070312 10.457031 C 15.097656 10.53125 15.179688 10.582031 15.238281 10.640625 L 15.242188 10.886719 C 15.253906 12.78125 15.269531 14.675781 15.28125 16.570312 Z M 15.28125 16.570312 "/>
<path style=" stroke:none;fill-rule:evenodd;fill:rgb(37.647059%,69.803922%,30.980392%);fill-opacity:1;" d="M 15.238281 10.640625 C 15.183594 10.582031 15.097656 10.53125 15.070312 10.457031 C 14.707031 9.378906 14.347656 8.300781 13.984375 7.21875 C 13.597656 6.0625 13.207031 4.910156 12.8125 3.757812 C 12.789062 3.6875 12.726562 3.636719 12.679688 3.574219 C 13.140625 3.125 13.589844 2.65625 14.070312 2.226562 C 14.496094 1.84375 14.839844 1.429688 14.855469 0.828125 C 14.855469 0.800781 14.871094 0.777344 14.890625 0.707031 L 15.011719 1.011719 C 15.007812 1.167969 14.992188 1.320312 15.003906 1.476562 C 15.023438 1.742188 15.066406 2.011719 15.078125 2.277344 C 15.101562 2.777344 15.109375 3.277344 15.121094 3.773438 C 15.136719 4.578125 15.152344 5.382812 15.160156 6.1875 C 15.175781 7.46875 15.1875 8.753906 15.203125 10.039062 C 15.207031 10.238281 15.226562 10.441406 15.238281 10.640625 Z M 15.238281 10.640625 "/>
<path style=" stroke:none;fill-rule:evenodd;fill:rgb(66.27451%,66.666667%,53.333333%);fill-opacity:1;" d="M 14.671875 25.097656 C 14.734375 24.789062 14.8125 24.484375 14.851562 24.171875 C 14.929688 23.550781 14.980469 22.929688 15.042969 22.304688 L 15.074219 22.304688 C 15.089844 23.085938 15.199219 23.855469 15.402344 24.613281 C 15.359375 24.664062 15.300781 24.714844 15.28125 24.777344 C 15.109375 25.257812 14.949219 25.742188 14.777344 26.222656 C 14.753906 26.285156 14.6875 26.335938 14.644531 26.394531 L 14.46875 25.792969 Z M 14.671875 25.097656 "/>
<path style=" stroke:none;fill-rule:evenodd;fill:rgb(71.372549%,70.980392%,59.607843%);fill-opacity:1;" d="M 14.644531 26.394531 C 14.6875 26.335938 14.753906 26.285156 14.777344 26.222656 C 14.949219 25.742188 15.109375 25.257812 15.28125 24.777344 C 15.300781 24.714844 15.359375 24.667969 15.402344 24.613281 L 15.695312 25.257812 C 15.636719 25.339844 15.558594 25.414062 15.523438 25.507812 L 14.960938 27.160156 C 14.9375 27.226562 14.859375 27.273438 14.804688 27.328125 Z M 14.644531 26.394531 "/>
<path style=" stroke:none;fill-rule:evenodd;fill:rgb(76.078431%,75.686275%,65.490196%);fill-opacity:1;" d="M 14.804688 27.328125 C 14.859375 27.273438 14.9375 27.226562 14.960938 27.160156 L 15.523438 25.503906 C 15.554688 25.414062 15.636719 25.339844 15.695312 25.257812 L 15.980469 25.5 C 15.84375 25.636719 15.765625 25.792969 15.8125 25.992188 L 15.726562 26.273438 C 15.6875 26.324219 15.628906 26.367188 15.609375 26.421875 C 15.414062 26.984375 15.226562 27.550781 15.027344 28.113281 C 15.003906 28.183594 14.933594 28.242188 14.882812 28.304688 C 14.859375 27.980469 14.832031 27.65625 14.804688 27.328125 Z M 14.804688 27.328125 "/>
<path style=" stroke:none;fill-rule:evenodd;fill:rgb(80.784314%,80.392157%,71.764706%);fill-opacity:1;" d="M 14.882812 28.304688 C 14.933594 28.242188 15.003906 28.183594 15.027344 28.113281 C 15.226562 27.550781 15.414062 26.984375 15.609375 26.421875 C 15.628906 26.367188 15.6875 26.324219 15.726562 26.273438 L 15.605469 27.574219 C 15.574219 27.609375 15.527344 27.644531 15.511719 27.6875 C 15.378906 28.0625 15.25 28.445312 15.117188 28.824219 C 15.089844 28.902344 15.035156 28.96875 14.992188 29.042969 C 14.957031 28.996094 14.890625 28.949219 14.886719 28.898438 C 14.875 28.699219 14.882812 28.5 14.882812 28.304688 Z M 14.882812 28.304688 "/>
<path style=" stroke:none;fill-rule:evenodd;fill:rgb(85.882353%,85.490196%,78.039216%);fill-opacity:1;" d="M 14.992188 29.042969 C 15.035156 28.96875 15.085938 28.902344 15.117188 28.824219 C 15.25 28.445312 15.378906 28.066406 15.511719 27.6875 C 15.527344 27.644531 15.574219 27.609375 15.605469 27.574219 L 15.609375 28.425781 L 15.324219 29.160156 Z M 14.992188 29.042969 "/>
<path style=" stroke:none;fill-rule:evenodd;fill:rgb(92.156863%,91.372549%,86.27451%);fill-opacity:1;" d="M 15.324219 29.160156 L 15.609375 28.425781 L 15.667969 29.292969 Z M 15.324219 29.160156 "/>
<path style=" stroke:none;fill-rule:evenodd;fill:rgb(80.784314%,80.392157%,71.764706%);fill-opacity:1;" d="M 15.8125 25.992188 C 15.765625 25.792969 15.84375 25.636719 15.980469 25.5 L 16.058594 25.554688 Z M 15.8125 25.992188 "/>
<path style=" stroke:none;fill-rule:evenodd;fill:rgb(30.980392%,66.666667%,25.490196%);fill-opacity:1;" d="M 15.074219 22.304688 L 15.042969 22.304688 L 15.078125 22.175781 Z M 15.074219 22.304688 "/>
</g>
</svg>
