<?xml version="1.0" encoding="UTF-8"?>
<svg xmlns="http://www.w3.org/2000/svg" xmlns:xlink="http://www.w3.org/1999/xlink" width="30pt" height="30pt" viewBox="0 0 30 30" version="1.1">
<g id="surface1">
<path style=" stroke:none;fill-rule:nonzero;fill:rgb(0%,38.039216%,54.117647%);fill-opacity:1;" d="M 27.410156 22.921875 C 25.800781 22.878906 24.574219 23.03125 23.523438 23.472656 C 23.222656 23.597656 22.746094 23.601562 22.699219 23.976562 C 22.863281 24.148438 22.890625 24.402344 23.019531 24.617188 C 23.269531 25.019531 23.691406 25.566406 24.070312 25.851562 C 24.484375 26.160156 24.910156 26.496094 25.351562 26.765625 C 26.140625 27.246094 27.015625 27.519531 27.773438 28 C 28.222656 28.28125 28.664062 28.640625 29.101562 28.960938 C 29.316406 29.117188 29.460938 29.363281 29.742188 29.460938 L 29.742188 29.417969 C 29.59375 29.230469 29.554688 28.972656 29.421875 28.777344 L 28.828125 28.183594 C 28.246094 27.410156 27.507812 26.734375 26.722656 26.171875 C 26.097656 25.722656 24.699219 25.113281 24.4375 24.386719 L 24.390625 24.339844 C 24.835938 24.289062 25.355469 24.128906 25.761719 24.019531 C 26.449219 23.835938 27.066406 23.882812 27.773438 23.699219 L 28.734375 23.425781 L 28.734375 23.242188 C 28.375 22.875 28.121094 22.386719 27.730469 22.054688 C 26.707031 21.183594 25.589844 20.3125 24.4375 19.585938 C 23.796875 19.183594 23.011719 18.921875 22.332031 18.578125 C 22.105469 18.464844 21.707031 18.402344 21.554688 18.210938 C 21.199219 17.761719 21.007812 17.1875 20.734375 16.65625 C 20.160156 15.550781 19.59375 14.34375 19.085938 13.183594 C 18.738281 12.390625 18.511719 11.605469 18.082031 10.894531 C 16.003906 7.480469 13.769531 5.421875 10.304688 3.394531 C 9.570312 2.964844 8.683594 2.792969 7.746094 2.570312 C 7.242188 2.542969 6.738281 2.511719 6.234375 2.480469 C 5.929688 2.351562 5.609375 1.976562 5.320312 1.792969 C 4.175781 1.070312 1.230469 -0.507812 0.382812 1.566406 C -0.152344 2.875 1.183594 4.148438 1.664062 4.8125 C 2 5.277344 2.429688 5.800781 2.667969 6.320312 C 2.828125 6.664062 2.855469 7.011719 2.988281 7.375 C 3.320312 8.269531 3.609375 9.246094 4.042969 10.070312 C 4.257812 10.492188 4.496094 10.933594 4.773438 11.308594 C 4.941406 11.535156 5.230469 11.636719 5.277344 11.992188 C 4.992188 12.386719 4.976562 13 4.820312 13.503906 C 4.105469 15.753906 4.375 18.558594 5.414062 20.226562 C 5.730469 20.738281 6.484375 21.835938 7.515625 21.414062 C 8.421875 21.046875 8.21875 19.90625 8.476562 18.898438 C 8.535156 18.671875 8.5 18.503906 8.613281 18.351562 L 8.613281 18.394531 L 9.4375 20.042969 C 10.046875 21.023438 11.128906 22.046875 12.042969 22.738281 C 12.519531 23.097656 12.894531 23.71875 13.507812 23.929688 L 13.507812 23.882812 L 13.460938 23.882812 C 13.34375 23.699219 13.15625 23.621094 13.003906 23.472656 C 12.648438 23.121094 12.25 22.683594 11.953125 22.28125 C 11.121094 21.152344 10.382812 19.914062 9.710938 18.625 C 9.390625 18.007812 9.113281 17.332031 8.84375 16.703125 C 8.738281 16.460938 8.742188 16.097656 8.523438 15.972656 C 8.226562 16.429688 7.792969 16.800781 7.5625 17.34375 C 7.195312 18.210938 7.148438 19.265625 7.015625 20.363281 C 6.933594 20.390625 6.96875 20.371094 6.921875 20.40625 C 6.285156 20.253906 6.0625 19.597656 5.824219 19.035156 C 5.226562 17.613281 5.113281 15.324219 5.640625 13.683594 C 5.777344 13.261719 6.394531 11.925781 6.144531 11.535156 C 6.027344 11.144531 5.632812 10.917969 5.414062 10.621094 C 5.140625 10.253906 4.871094 9.765625 4.679688 9.339844 C 4.191406 8.230469 3.960938 6.984375 3.445312 5.863281 C 3.199219 5.328125 2.78125 4.785156 2.441406 4.308594 C 2.0625 3.78125 1.636719 3.394531 1.34375 2.753906 C 1.238281 2.527344 1.097656 2.164062 1.25 1.933594 C 1.300781 1.773438 1.371094 1.707031 1.527344 1.65625 C 1.792969 1.453125 2.53125 1.726562 2.804688 1.839844 C 3.539062 2.144531 4.152344 2.433594 4.773438 2.847656 C 5.070312 3.042969 5.371094 3.425781 5.734375 3.53125 L 6.144531 3.53125 C 6.789062 3.679688 7.507812 3.578125 8.109375 3.761719 C 9.175781 4.082031 10.128906 4.585938 10.992188 5.132812 C 13.628906 6.796875 15.785156 9.167969 17.257812 11.992188 C 17.496094 12.449219 17.597656 12.882812 17.804688 13.363281 C 18.226562 14.339844 18.757812 15.339844 19.175781 16.292969 C 19.597656 17.242188 20.003906 18.199219 20.59375 18.992188 C 20.90625 19.40625 22.109375 19.628906 22.652344 19.859375 C 23.035156 20.019531 23.664062 20.191406 24.027344 20.40625 C 24.71875 20.824219 25.386719 21.324219 26.039062 21.78125 C 26.363281 22.007812 27.359375 22.511719 27.410156 22.921875 Z M 6.96875 5.5 C 6.632812 5.492188 6.394531 5.535156 6.144531 5.589844 L 6.144531 5.636719 L 6.191406 5.636719 C 6.351562 5.964844 6.632812 6.175781 6.832031 6.460938 C 6.984375 6.78125 7.136719 7.101562 7.289062 7.421875 L 7.332031 7.375 C 7.617188 7.175781 7.746094 6.855469 7.746094 6.367188 C 7.632812 6.25 7.613281 6.101562 7.515625 5.957031 C 7.386719 5.765625 7.132812 5.660156 6.96875 5.5 Z M 6.96875 5.5 "/>
</g>
</svg>
