<?xml version="1.0" encoding="UTF-8"?>
<svg xmlns="http://www.w3.org/2000/svg" xmlns:xlink="http://www.w3.org/1999/xlink" width="30pt" height="30pt" viewBox="0 0 30 30" version="1.1">
<g id="surface1">
<path style=" stroke:none;fill-rule:nonzero;fill:rgb(14.509804%,78.039216%,71.764706%);fill-opacity:1;" d="M 17.941406 19.414062 L 10.582031 17.878906 C 10.550781 17.9375 10.519531 17.996094 10.480469 18.050781 L 17.179688 27.820312 L 17.582031 27.417969 L 18.722656 20.332031 C 18.335938 20.167969 18.042969 19.828125 17.941406 19.414062 Z M 15.257812 9.796875 C 14.980469 10.21875 14.503906 10.5 13.964844 10.5 C 13.878906 10.5 13.796875 10.492188 13.71875 10.480469 L 10.363281 15.730469 L 19.328125 11.871094 C 19.324219 11.835938 19.316406 11.800781 19.316406 11.765625 C 19.316406 11.6875 19.328125 11.617188 19.339844 11.542969 Z M 15.5 8.839844 L 19.84375 10.699219 C 19.980469 10.589844 20.136719 10.511719 20.308594 10.460938 L 21.023438 6.023438 L 18.304688 3.304688 L 15.242188 8.09375 C 15.390625 8.3125 15.480469 8.566406 15.5 8.839844 Z M 24.601562 9.601562 L 21.875 6.875 L 21.285156 10.554688 C 21.433594 10.632812 21.570312 10.734375 21.679688 10.859375 Z M 18.070312 18.445312 C 18.285156 18.0625 18.675781 17.796875 19.136719 17.761719 L 19.917969 12.890625 C 19.859375 12.851562 19.800781 12.800781 19.75 12.753906 L 10.734375 16.632812 C 10.753906 16.726562 10.773438 16.824219 10.777344 16.921875 Z M 25.34375 10.34375 L 22.191406 11.703125 L 29.972656 15.027344 L 30 15 Z M 19.707031 20.347656 L 18.761719 26.238281 L 24.265625 20.734375 L 20.300781 19.90625 C 20.148438 20.105469 19.945312 20.257812 19.707031 20.347656 Z M 9.011719 18.832031 C 8.8125 18.832031 8.621094 18.796875 8.441406 18.738281 L 6.613281 21.597656 L 5.90625 20.890625 L 7.640625 18.183594 C 7.597656 18.128906 7.558594 18.074219 7.519531 18.015625 L 4.382812 19.367188 L 3.640625 18.625 L 7.074219 17.144531 L 0.867188 15.851562 L 0.015625 15 L 0.285156 14.730469 L 7.445312 16.226562 C 7.527344 16.070312 7.632812 15.925781 7.757812 15.800781 L 4.28125 10.734375 L 4.984375 10.03125 L 8.613281 15.328125 C 8.742188 15.300781 8.875 15.28125 9.011719 15.28125 C 9.164062 15.28125 9.3125 15.304688 9.453125 15.339844 L 12.851562 10.023438 C 12.585938 9.746094 12.421875 9.371094 12.421875 8.957031 C 12.421875 8.835938 12.4375 8.714844 12.460938 8.601562 L 8.226562 6.792969 L 8.96875 6.046875 L 12.984375 7.765625 C 13.25 7.546875 13.589844 7.414062 13.964844 7.414062 C 14.140625 7.414062 14.308594 7.445312 14.464844 7.5 L 17.597656 2.597656 L 15 0 L 0 15 L 15 30 L 16.476562 28.523438 L 9.726562 18.679688 C 9.507812 18.777344 9.265625 18.832031 9.011719 18.832031 Z M 20.875 13.101562 L 20.078125 18.050781 C 20.351562 18.273438 20.535156 18.597656 20.570312 18.96875 L 25.089844 19.910156 L 29.226562 15.773438 L 21.757812 12.578125 C 21.546875 12.855469 21.234375 13.050781 20.875 13.101562 Z M 20.875 13.101562 "/>
</g>
</svg>
