<?xml version="1.0" encoding="UTF-8"?>
<svg xmlns="http://www.w3.org/2000/svg" xmlns:xlink="http://www.w3.org/1999/xlink" width="30pt" height="30pt" viewBox="0 0 30 30" version="1.1">
<g id="surface1">
<path style=" stroke:none;fill-rule:nonzero;fill:rgb(0%,0%,0%);fill-opacity:1;" d="M 14.019531 0.0234375 C 13.953125 0.0273438 13.75 0.0507812 13.566406 0.0625 C 9.308594 0.449219 5.320312 2.746094 2.796875 6.273438 C 1.390625 8.238281 0.492188 10.464844 0.152344 12.820312 C 0.03125 13.644531 0.015625 13.886719 0.015625 15.003906 C 0.015625 16.121094 0.03125 16.363281 0.152344 17.1875 C 0.964844 22.8125 4.96875 27.542969 10.402344 29.292969 C 11.375 29.609375 12.398438 29.820312 13.566406 29.949219 C 14.019531 30 15.980469 30 16.433594 29.949219 C 18.449219 29.726562 20.152344 29.230469 21.835938 28.371094 C 22.09375 28.238281 22.140625 28.203125 22.105469 28.175781 C 22.082031 28.15625 20.984375 26.683594 19.667969 24.902344 L 17.269531 21.664062 L 14.269531 17.222656 C 12.617188 14.777344 11.257812 12.78125 11.246094 12.78125 C 11.234375 12.777344 11.222656 14.753906 11.214844 17.164062 C 11.207031 21.382812 11.203125 21.554688 11.152344 21.652344 C 11.074219 21.796875 11.015625 21.855469 10.894531 21.921875 C 10.800781 21.96875 10.71875 21.976562 10.273438 21.976562 L 9.769531 21.976562 L 9.632812 21.890625 C 9.546875 21.835938 9.480469 21.761719 9.4375 21.675781 L 9.375 21.546875 L 9.390625 9.796875 L 9.480469 9.683594 C 9.527344 9.621094 9.628906 9.542969 9.699219 9.503906 C 9.816406 9.445312 9.863281 9.4375 10.371094 9.4375 C 10.96875 9.4375 11.070312 9.460938 11.222656 9.632812 C 11.269531 9.679688 12.894531 12.128906 14.839844 15.078125 C 16.785156 18.027344 19.445312 22.054688 20.75 24.03125 L 23.125 27.628906 L 23.242188 27.546875 C 24.308594 26.855469 25.429688 25.871094 26.320312 24.847656 C 28.21875 22.671875 29.4375 20.015625 29.847656 17.1875 C 29.96875 16.363281 29.984375 16.121094 29.984375 15.003906 C 29.984375 13.886719 29.96875 13.644531 29.847656 12.820312 C 29.035156 7.195312 25.03125 2.464844 19.597656 0.714844 C 18.640625 0.402344 17.621094 0.191406 16.480469 0.0625 C 16.199219 0.03125 14.261719 0 14.019531 0.0234375 Z M 20.152344 9.085938 C 20.292969 9.15625 20.40625 9.292969 20.449219 9.433594 C 20.472656 9.507812 20.476562 11.136719 20.472656 14.808594 L 20.464844 20.074219 L 19.535156 18.652344 L 18.601562 17.226562 L 18.601562 13.398438 C 18.601562 10.921875 18.613281 9.53125 18.632812 9.464844 C 18.679688 9.300781 18.78125 9.171875 18.921875 9.097656 C 19.042969 9.035156 19.085938 9.027344 19.546875 9.027344 C 19.980469 9.027344 20.054688 9.035156 20.152344 9.085938 Z M 20.152344 9.085938 "/>
<path style=" stroke:none;fill-rule:nonzero;fill:rgb(0%,0%,0%);fill-opacity:1;" d="M 22.976562 27.691406 C 22.875 27.757812 22.84375 27.800781 22.933594 27.75 C 22.996094 27.710938 23.101562 27.632812 23.085938 27.628906 C 23.078125 27.628906 23.027344 27.660156 22.976562 27.691406 Z M 22.773438 27.824219 C 22.722656 27.863281 22.722656 27.867188 22.785156 27.835938 C 22.820312 27.816406 22.851562 27.796875 22.851562 27.792969 C 22.851562 27.769531 22.835938 27.773438 22.773438 27.824219 Z M 22.628906 27.910156 C 22.574219 27.953125 22.574219 27.957031 22.640625 27.921875 C 22.675781 27.90625 22.703125 27.886719 22.703125 27.878906 C 22.703125 27.855469 22.691406 27.863281 22.628906 27.910156 Z M 22.480469 28 C 22.429688 28.039062 22.429688 28.042969 22.492188 28.011719 C 22.527344 27.992188 22.558594 27.972656 22.558594 27.96875 C 22.558594 27.945312 22.542969 27.949219 22.480469 28 Z M 22.257812 28.117188 C 22.148438 28.175781 22.152344 28.199219 22.265625 28.144531 C 22.316406 28.117188 22.351562 28.089844 22.351562 28.085938 C 22.351562 28.0625 22.351562 28.066406 22.257812 28.117188 Z M 22.257812 28.117188 "/>
</g>
</svg>
