<?xml version="1.0" encoding="UTF-8"?>
<svg xmlns="http://www.w3.org/2000/svg" xmlns:xlink="http://www.w3.org/1999/xlink" width="30pt" height="30pt" viewBox="0 0 30 30" version="1.1">
<g id="surface1">
<path style=" stroke:none;fill-rule:nonzero;fill:rgb(100%,100%,100%);fill-opacity:1;" d="M 27.550781 18.617188 C 27.4375 18.101562 26.96875 17.496094 26.019531 17.496094 C 25.824219 17.496094 25.613281 17.519531 25.375 17.570312 C 24.929688 17.660156 24.554688 17.703125 24.222656 17.722656 C 26.804688 13.320312 28.480469 7.210938 26.820312 5.089844 C 24.632812 2.292969 21.6875 1.875 20.128906 1.875 L 19.980469 1.875 C 19.398438 1.886719 18.796875 1.957031 18.191406 2.085938 L 15.949219 2.570312 C 15.640625 2.53125 15.324219 2.507812 15.011719 2.5 L 14.886719 2.5 C 13.890625 2.5 12.984375 2.710938 12.175781 3.109375 L 11.390625 2.800781 C 10.316406 2.375 8.703125 1.871094 7.097656 1.871094 C 7.007812 1.871094 6.921875 1.871094 6.832031 1.878906 C 5.253906 1.933594 3.902344 2.53125 2.914062 3.605469 C 1.683594 4.945312 1.125 6.910156 1.253906 9.4375 C 1.257812 9.566406 2.789062 22.5 7.125 22.5 L 7.179688 22.5 C 7.746094 22.484375 8.28125 22.257812 8.78125 21.828125 C 9.164062 22.113281 9.660156 22.28125 10.121094 22.351562 C 10.425781 22.425781 10.976562 22.523438 11.632812 22.523438 C 12.4375 22.523438 13.160156 22.359375 13.785156 22.0625 C 13.785156 22.613281 13.78125 23.3125 13.773438 24.199219 L 13.773438 24.25 L 13.777344 24.292969 C 13.839844 25.179688 13.992188 25.980469 14.21875 26.605469 C 14.878906 28.394531 16.011719 29.378906 17.414062 29.378906 C 17.472656 29.378906 17.535156 29.378906 17.59375 29.371094 C 18.746094 29.300781 19.917969 28.652344 20.71875 27.640625 C 21.59375 26.542969 21.792969 25.386719 21.871094 24.5 L 21.875 24.441406 L 21.875 21.839844 L 21.9375 21.84375 L 22.210938 21.871094 L 22.265625 21.871094 C 22.339844 21.878906 22.421875 21.878906 22.503906 21.878906 C 23.445312 21.878906 24.605469 21.632812 25.386719 21.269531 C 26.136719 20.921875 27.847656 19.96875 27.550781 18.617188 Z M 27.550781 18.617188 "/>
<path style=" stroke:none;fill-rule:nonzero;fill:rgb(0.784314%,46.666667%,74.117647%);fill-opacity:1;" d="M 20.625 21.25 C 20.625 21.125 20.632812 21.015625 20.636719 20.894531 L 20.625 20.625 L 20.644531 20.609375 C 20.738281 18.941406 21.199219 18.296875 21.691406 17.929688 C 21.625 17.835938 21.542969 17.730469 21.46875 17.632812 C 21.261719 17.359375 21 17.023438 20.726562 16.585938 L 20.671875 16.488281 C 20.632812 16.386719 20.53125 16.207031 20.402344 15.976562 C 19.664062 14.640625 18.121094 11.855469 19.175781 10.097656 C 19.640625 9.328125 20.503906 8.882812 21.753906 8.773438 C 21.238281 7.324219 19.328125 3.820312 14.988281 3.75 C 11.210938 3.6875 9.96875 7.117188 9.566406 9.171875 C 10.121094 8.9375 10.757812 8.792969 11.339844 8.792969 L 11.367188 8.792969 C 12.796875 8.800781 13.78125 9.566406 14.066406 10.890625 C 14.277344 11.859375 14.378906 12.703125 14.375 13.484375 C 14.371094 15.183594 14.027344 16.078125 13.726562 16.863281 L 13.628906 17.121094 C 13.550781 17.328125 13.46875 17.523438 13.390625 17.703125 C 13.3125 17.890625 13.242188 18.058594 13.191406 18.207031 C 13.496094 18.277344 13.734375 18.371094 13.894531 18.445312 L 13.988281 18.484375 C 14.019531 18.5 14.046875 18.511719 14.074219 18.527344 C 14.605469 18.851562 14.9375 19.34375 15.007812 19.925781 C 15.042969 20.238281 15.039062 22.359375 15.023438 24.207031 C 15.082031 25.011719 15.214844 25.6875 15.394531 26.175781 C 15.652344 26.871094 16.289062 28.199219 17.515625 28.125 C 18.375 28.070312 19.195312 27.546875 19.742188 26.863281 C 20.328125 26.125 20.542969 25.308594 20.628906 24.390625 L 20.628906 21.25 Z M 20.625 21.25 "/>
<path style=" stroke:none;fill-rule:nonzero;fill:rgb(0.784314%,46.666667%,74.117647%);fill-opacity:1;" d="M 9.445312 18.074219 C 8.4375 17.019531 7.945312 15.605469 8.132812 14.285156 C 8.3125 13.015625 8.207031 11.773438 8.15625 11.101562 C 8.140625 10.941406 8.128906 10.78125 8.125 10.621094 C 8.125 10.613281 8.128906 10.609375 8.128906 10.605469 C 8.128906 10.601562 8.125 10.601562 8.125 10.601562 C 8.199219 8.710938 8.929688 5.730469 10.933594 3.960938 C 9.957031 3.578125 8.367188 3.070312 6.875 3.125 C 4.535156 3.210938 2.273438 4.828125 2.5 9.375 C 2.585938 11.082031 4.515625 21.3125 7.152344 21.25 C 7.527344 21.238281 7.917969 21 8.320312 20.515625 C 8.871094 19.855469 9.433594 19.207031 10.011719 18.574219 C 9.808594 18.421875 9.621094 18.253906 9.445312 18.074219 Z M 9.445312 18.074219 "/>
<path style=" stroke:none;fill-rule:nonzero;fill:rgb(0.784314%,46.666667%,74.117647%);fill-opacity:1;" d="M 23.140625 9.207031 C 23.148438 9.304688 23.140625 9.386719 23.125 9.460938 C 23.144531 10.035156 23.082031 10.59375 23.019531 11.136719 C 22.96875 11.539062 22.933594 11.949219 22.914062 12.355469 C 22.898438 12.757812 22.957031 13.15625 23.015625 13.578125 C 23.15625 14.5625 23.304688 15.675781 22.539062 16.976562 C 22.679688 17.160156 22.800781 17.332031 22.902344 17.496094 C 25.785156 12.828125 26.941406 7.273438 25.835938 5.855469 C 24.160156 3.714844 21.835938 3.09375 20 3.125 C 19.421875 3.136719 18.902344 3.210938 18.453125 3.308594 C 21.625 4.84375 23.039062 8.140625 23.140625 9.207031 Z M 23.140625 9.207031 "/>
<path style=" stroke:none;fill-rule:nonzero;fill:rgb(0.784314%,46.666667%,74.117647%);fill-opacity:1;" d="M 25.625 18.792969 C 23.960938 19.136719 23.160156 18.953125 22.769531 18.714844 C 22.707031 18.757812 22.644531 18.796875 22.585938 18.835938 C 22.355469 18.972656 21.984375 19.199219 21.894531 20.574219 C 21.949219 20.582031 21.992188 20.589844 22.046875 20.601562 L 22.320312 20.625 C 23.148438 20.660156 24.226562 20.433594 24.859375 20.136719 C 26.226562 19.5 26.96875 18.519531 25.625 18.792969 Z M 25.625 18.792969 "/>
<path style=" stroke:none;fill-rule:nonzero;fill:rgb(0.784314%,46.666667%,74.117647%);fill-opacity:1;" d="M 13.765625 20.074219 C 13.738281 19.886719 13.640625 19.734375 13.457031 19.617188 L 13.386719 19.585938 C 13.164062 19.488281 12.90625 19.375 12.5 19.375 L 12.496094 19.375 C 12.417969 19.382812 12.339844 19.386719 12.261719 19.386719 C 12.226562 19.386719 12.195312 19.382812 12.164062 19.382812 C 11.867188 19.609375 11.445312 19.785156 10.402344 20 C 8.539062 20.472656 9.640625 21.035156 10.355469 21.121094 C 11.046875 21.292969 12.6875 21.503906 13.777344 20.613281 C 13.78125 20.433594 13.773438 20.253906 13.765625 20.074219 Z M 13.765625 20.074219 "/>
<path style=" stroke:none;fill-rule:nonzero;fill:rgb(0.784314%,46.666667%,74.117647%);fill-opacity:1;" d="M 12.925781 11.5625 C 12.742188 11.753906 12.457031 11.917969 12.136719 11.863281 C 11.617188 11.78125 11.222656 11.15625 11.253906 10.921875 C 11.28125 10.6875 11.722656 10.566406 12.234375 10.652344 C 12.417969 10.679688 12.578125 10.734375 12.71875 10.792969 C 12.515625 10.363281 12.15625 10.113281 11.605469 10.054688 C 10.625 9.945312 9.585938 10.457031 9.378906 10.738281 C 9.382812 10.8125 9.390625 10.898438 9.398438 11 C 9.457031 11.71875 9.566406 13.054688 9.367188 14.464844 C 9.238281 15.390625 9.613281 16.441406 10.347656 17.210938 C 10.820312 17.703125 11.371094 18.015625 11.917969 18.109375 C 11.988281 17.808594 12.113281 17.515625 12.238281 17.21875 C 12.308594 17.050781 12.386719 16.875 12.457031 16.683594 L 12.554688 16.417969 C 12.832031 15.695312 13.117188 14.949219 13.125 13.480469 C 13.128906 12.914062 13.054688 12.269531 12.925781 11.5625 Z M 12.925781 11.5625 "/>
<path style=" stroke:none;fill-rule:nonzero;fill:rgb(0.784314%,46.666667%,74.117647%);fill-opacity:1;" d="M 21.78125 13.753906 C 21.714844 13.296875 21.648438 12.828125 21.664062 12.3125 C 21.675781 11.851562 21.730469 11.414062 21.78125 10.992188 C 21.816406 10.65625 21.847656 10.335938 21.863281 10.023438 C 21.058594 10.089844 20.523438 10.324219 20.269531 10.714844 C 20.386719 10.675781 20.503906 10.648438 20.625 10.632812 C 21.183594 10.5625 21.589844 10.722656 21.636719 11.03125 C 21.671875 11.261719 21.480469 11.472656 21.394531 11.554688 C 21.21875 11.722656 21.003906 11.832031 20.78125 11.859375 C 20.53125 11.886719 20.277344 11.824219 20.070312 11.679688 C 20.140625 12.914062 21.046875 14.5625 21.492188 15.371094 C 21.59375 15.542969 21.664062 15.683594 21.726562 15.800781 C 21.96875 15.101562 21.878906 14.464844 21.78125 13.753906 Z M 21.78125 13.753906 "/>
</g>
</svg>
