<?xml version="1.0" encoding="UTF-8"?>
<svg xmlns="http://www.w3.org/2000/svg" xmlns:xlink="http://www.w3.org/1999/xlink" width="30pt" height="30pt" viewBox="0 0 30 30" version="1.1">
<defs>
<filter id="alpha" filterUnits="objectBoundingBox" x="0%" y="0%" width="100%" height="100%">
  <feColorMatrix type="matrix" in="SourceGraphic" values="0 0 0 0 1 0 0 0 0 1 0 0 0 0 1 0 0 0 1 0"/>
</filter>
<mask id="mask0">
  <g filter="url(#alpha)">
<rect x="0" y="0" width="30" height="30" style="fill:rgb(0%,0%,0%);fill-opacity:0.501961;stroke:none;"/>
  </g>
</mask>
<clipPath id="clip1">
  <rect x="0" y="0" width="30" height="30"/>
</clipPath>
<g id="surface5" clip-path="url(#clip1)">
<path style=" stroke:none;fill-rule:nonzero;fill:rgb(81.568627%,83.137255%,84.705882%);fill-opacity:1;" d="M 19.15625 25.714844 L 20.84375 25.714844 C 21.167969 25.714844 21.429688 25.976562 21.429688 26.300781 L 21.429688 26.558594 C 21.429688 26.878906 21.167969 27.144531 20.84375 27.144531 L 19.15625 27.144531 C 18.832031 27.144531 18.570312 26.878906 18.570312 26.558594 L 18.570312 26.300781 C 18.570312 25.976562 18.832031 25.714844 19.15625 25.714844 Z M 19.15625 25.714844 "/>
</g>
<mask id="mask1">
  <g filter="url(#alpha)">
<rect x="0" y="0" width="30" height="30" style="fill:rgb(0%,0%,0%);fill-opacity:0.501961;stroke:none;"/>
  </g>
</mask>
<clipPath id="clip2">
  <rect x="0" y="0" width="30" height="30"/>
</clipPath>
<g id="surface8" clip-path="url(#clip2)">
<path style=" stroke:none;fill-rule:nonzero;fill:rgb(81.568627%,83.137255%,84.705882%);fill-opacity:1;" d="M 10.585938 25.714844 L 16.558594 25.714844 C 16.878906 25.714844 17.144531 25.976562 17.144531 26.300781 L 17.144531 26.558594 C 17.144531 26.878906 16.878906 27.144531 16.558594 27.144531 L 10.585938 27.144531 C 10.261719 27.144531 10 26.878906 10 26.558594 L 10 26.300781 C 10 25.976562 10.261719 25.714844 10.585938 25.714844 Z M 10.585938 25.714844 "/>
</g>
<mask id="mask2">
  <g filter="url(#alpha)">
<rect x="0" y="0" width="30" height="30" style="fill:rgb(0%,0%,0%);fill-opacity:0.501961;stroke:none;"/>
  </g>
</mask>
<clipPath id="clip3">
  <rect x="0" y="0" width="30" height="30"/>
</clipPath>
<g id="surface11" clip-path="url(#clip3)">
<path style=" stroke:none;fill-rule:nonzero;fill:rgb(81.568627%,83.137255%,84.705882%);fill-opacity:1;" d="M 23.441406 25.714844 L 29.414062 25.714844 C 29.738281 25.714844 30 25.976562 30 26.300781 L 30 26.558594 C 30 26.878906 29.738281 27.144531 29.414062 27.144531 L 23.441406 27.144531 C 23.121094 27.144531 22.855469 26.878906 22.855469 26.558594 L 22.855469 26.300781 C 22.855469 25.976562 23.121094 25.714844 23.441406 25.714844 Z M 23.441406 25.714844 "/>
</g>
<mask id="mask3">
  <g filter="url(#alpha)">
<rect x="0" y="0" width="30" height="30" style="fill:rgb(0%,0%,0%);fill-opacity:0.501961;stroke:none;"/>
  </g>
</mask>
<clipPath id="clip4">
  <rect x="0" y="0" width="30" height="30"/>
</clipPath>
<g id="surface14" clip-path="url(#clip4)">
<path style=" stroke:none;fill-rule:nonzero;fill:rgb(81.568627%,83.137255%,84.705882%);fill-opacity:1;" d="M 20.585938 0 L 29.414062 0 C 29.738281 0 30 0.261719 30 0.585938 L 30 0.84375 C 30 1.167969 29.738281 1.429688 29.414062 1.429688 L 20.585938 1.429688 C 20.261719 1.429688 20 1.167969 20 0.84375 L 20 0.585938 C 20 0.261719 20.261719 0 20.585938 0 Z M 20.585938 0 "/>
</g>
<mask id="mask4">
  <g filter="url(#alpha)">
<rect x="0" y="0" width="30" height="30" style="fill:rgb(0%,0%,0%);fill-opacity:0.501961;stroke:none;"/>
  </g>
</mask>
<clipPath id="clip5">
  <rect x="0" y="0" width="30" height="30"/>
</clipPath>
<g id="surface17" clip-path="url(#clip5)">
<path style=" stroke:none;fill-rule:nonzero;fill:rgb(81.568627%,83.137255%,84.705882%);fill-opacity:1;" d="M 20.585938 20 L 23.699219 20 C 24.023438 20 24.285156 20.261719 24.285156 20.585938 L 24.285156 20.84375 C 24.285156 21.167969 24.023438 21.429688 23.699219 21.429688 L 20.585938 21.429688 C 20.261719 21.429688 20 21.167969 20 20.84375 L 20 20.585938 C 20 20.261719 20.261719 20 20.585938 20 Z M 20.585938 20 "/>
</g>
<mask id="mask5">
  <g filter="url(#alpha)">
<rect x="0" y="0" width="30" height="30" style="fill:rgb(0%,0%,0%);fill-opacity:0.501961;stroke:none;"/>
  </g>
</mask>
<clipPath id="clip6">
  <rect x="0" y="0" width="30" height="30"/>
</clipPath>
<g id="surface20" clip-path="url(#clip6)">
<path style=" stroke:none;fill-rule:nonzero;fill:rgb(81.568627%,83.137255%,84.705882%);fill-opacity:1;" d="M 26.300781 20 L 29.414062 20 C 29.738281 20 30 20.261719 30 20.585938 L 30 20.84375 C 30 21.167969 29.738281 21.429688 29.414062 21.429688 L 26.300781 21.429688 C 25.976562 21.429688 25.714844 21.167969 25.714844 20.84375 L 25.714844 20.585938 C 25.714844 20.261719 25.976562 20 26.300781 20 Z M 26.300781 20 "/>
</g>
<mask id="mask6">
  <g filter="url(#alpha)">
<rect x="0" y="0" width="30" height="30" style="fill:rgb(0%,0%,0%);fill-opacity:0.501961;stroke:none;"/>
  </g>
</mask>
<clipPath id="clip7">
  <rect x="0" y="0" width="30" height="30"/>
</clipPath>
<g id="surface23" clip-path="url(#clip7)">
<path style=" stroke:none;fill-rule:nonzero;fill:rgb(81.568627%,83.137255%,84.705882%);fill-opacity:1;" d="M 24.871094 17.144531 L 29.414062 17.144531 C 29.738281 17.144531 30 17.40625 30 17.730469 L 30 17.984375 C 30 18.308594 29.738281 18.570312 29.414062 18.570312 L 24.871094 18.570312 C 24.546875 18.570312 24.285156 18.308594 24.285156 17.984375 L 24.285156 17.730469 C 24.285156 17.40625 24.546875 17.144531 24.871094 17.144531 Z M 24.871094 17.144531 "/>
</g>
<mask id="mask7">
  <g filter="url(#alpha)">
<rect x="0" y="0" width="30" height="30" style="fill:rgb(0%,0%,0%);fill-opacity:0.501961;stroke:none;"/>
  </g>
</mask>
<clipPath id="clip8">
  <rect x="0" y="0" width="30" height="30"/>
</clipPath>
<g id="surface26" clip-path="url(#clip8)">
<path style=" stroke:none;fill-rule:nonzero;fill:rgb(81.568627%,83.137255%,84.705882%);fill-opacity:1;" d="M 24.871094 2.855469 L 29.414062 2.855469 C 29.738281 2.855469 30 3.121094 30 3.441406 L 30 3.699219 C 30 4.023438 29.738281 4.285156 29.414062 4.285156 L 24.871094 4.285156 C 24.546875 4.285156 24.285156 4.023438 24.285156 3.699219 L 24.285156 3.441406 C 24.285156 3.121094 24.546875 2.855469 24.871094 2.855469 Z M 24.871094 2.855469 "/>
</g>
<mask id="mask8">
  <g filter="url(#alpha)">
<rect x="0" y="0" width="30" height="30" style="fill:rgb(0%,0%,0%);fill-opacity:0.501961;stroke:none;"/>
  </g>
</mask>
<clipPath id="clip9">
  <rect x="0" y="0" width="30" height="30"/>
</clipPath>
<g id="surface29" clip-path="url(#clip9)">
<path style=" stroke:none;fill-rule:nonzero;fill:rgb(81.568627%,83.137255%,84.705882%);fill-opacity:1;" d="M 26.300781 14.285156 L 29.414062 14.285156 C 29.738281 14.285156 30 14.546875 30 14.871094 L 30 15.128906 C 30 15.453125 29.738281 15.714844 29.414062 15.714844 L 26.300781 15.714844 C 25.976562 15.714844 25.714844 15.453125 25.714844 15.128906 L 25.714844 14.871094 C 25.714844 14.546875 25.976562 14.285156 26.300781 14.285156 Z M 26.300781 14.285156 "/>
</g>
<mask id="mask9">
  <g filter="url(#alpha)">
<rect x="0" y="0" width="30" height="30" style="fill:rgb(0%,0%,0%);fill-opacity:0.501961;stroke:none;"/>
  </g>
</mask>
<clipPath id="clip10">
  <rect x="0" y="0" width="30" height="30"/>
</clipPath>
<g id="surface32" clip-path="url(#clip10)">
<path style=" stroke:none;fill-rule:nonzero;fill:rgb(81.568627%,83.137255%,84.705882%);fill-opacity:1;" d="M 26.300781 5.714844 L 29.414062 5.714844 C 29.738281 5.714844 30 5.976562 30 6.300781 L 30 6.558594 C 30 6.878906 29.738281 7.144531 29.414062 7.144531 L 26.300781 7.144531 C 25.976562 7.144531 25.714844 6.878906 25.714844 6.558594 L 25.714844 6.300781 C 25.714844 5.976562 25.976562 5.714844 26.300781 5.714844 Z M 26.300781 5.714844 "/>
</g>
<mask id="mask10">
  <g filter="url(#alpha)">
<rect x="0" y="0" width="30" height="30" style="fill:rgb(0%,0%,0%);fill-opacity:0.501961;stroke:none;"/>
  </g>
</mask>
<clipPath id="clip11">
  <rect x="0" y="0" width="30" height="30"/>
</clipPath>
<g id="surface35" clip-path="url(#clip11)">
<path style=" stroke:none;fill-rule:nonzero;fill:rgb(81.568627%,83.137255%,84.705882%);fill-opacity:1;" d="M 27.730469 8.570312 L 29.414062 8.570312 C 29.738281 8.570312 30 8.832031 30 9.15625 L 30 9.414062 C 30 9.738281 29.738281 10 29.414062 10 L 27.730469 10 C 27.40625 10 27.144531 9.738281 27.144531 9.414062 L 27.144531 9.15625 C 27.144531 8.832031 27.40625 8.570312 27.730469 8.570312 Z M 27.730469 8.570312 "/>
</g>
<mask id="mask11">
  <g filter="url(#alpha)">
<rect x="0" y="0" width="30" height="30" style="fill:rgb(0%,0%,0%);fill-opacity:0.501961;stroke:none;"/>
  </g>
</mask>
<clipPath id="clip12">
  <rect x="0" y="0" width="30" height="30"/>
</clipPath>
<g id="surface38" clip-path="url(#clip12)">
<path style=" stroke:none;fill-rule:nonzero;fill:rgb(81.568627%,83.137255%,84.705882%);fill-opacity:1;" d="M 27.730469 11.429688 L 29.414062 11.429688 C 29.738281 11.429688 30 11.691406 30 12.015625 L 30 12.269531 C 30 12.59375 29.738281 12.855469 29.414062 12.855469 L 27.730469 12.855469 C 27.40625 12.855469 27.144531 12.59375 27.144531 12.269531 L 27.144531 12.015625 C 27.144531 11.691406 27.40625 11.429688 27.730469 11.429688 Z M 27.730469 11.429688 "/>
</g>
<mask id="mask12">
  <g filter="url(#alpha)">
<rect x="0" y="0" width="30" height="30" style="fill:rgb(0%,0%,0%);fill-opacity:0.501961;stroke:none;"/>
  </g>
</mask>
<clipPath id="clip13">
  <rect x="0" y="0" width="30" height="30"/>
</clipPath>
<g id="surface41" clip-path="url(#clip13)">
<path style=" stroke:none;fill-rule:nonzero;fill:rgb(81.568627%,83.137255%,84.705882%);fill-opacity:1;" d="M 16.300781 22.855469 L 29.414062 22.855469 C 29.738281 22.855469 30 23.121094 30 23.441406 L 30 23.699219 C 30 24.023438 29.738281 24.285156 29.414062 24.285156 L 16.300781 24.285156 C 15.976562 24.285156 15.714844 24.023438 15.714844 23.699219 L 15.714844 23.441406 C 15.714844 23.121094 15.976562 22.855469 16.300781 22.855469 Z M 16.300781 22.855469 "/>
</g>
<mask id="mask13">
  <g filter="url(#alpha)">
<rect x="0" y="0" width="30" height="30" style="fill:rgb(0%,0%,0%);fill-opacity:0.501961;stroke:none;"/>
  </g>
</mask>
<clipPath id="clip14">
  <rect x="0" y="0" width="30" height="30"/>
</clipPath>
<g id="surface44" clip-path="url(#clip14)">
<path style=" stroke:none;fill-rule:nonzero;fill:rgb(81.568627%,83.137255%,84.705882%);fill-opacity:1;" d="M 10.585938 22.855469 L 13.699219 22.855469 C 14.023438 22.855469 14.285156 23.121094 14.285156 23.441406 L 14.285156 23.699219 C 14.285156 24.023438 14.023438 24.285156 13.699219 24.285156 L 10.585938 24.285156 C 10.261719 24.285156 10 24.023438 10 23.699219 L 10 23.441406 C 10 23.121094 10.261719 22.855469 10.585938 22.855469 Z M 10.585938 22.855469 "/>
</g>
<mask id="mask14">
  <g filter="url(#alpha)">
<rect x="0" y="0" width="30" height="30" style="fill:rgb(0%,0%,0%);fill-opacity:0.501961;stroke:none;"/>
  </g>
</mask>
<clipPath id="clip15">
  <rect x="0" y="0" width="30" height="30"/>
</clipPath>
<g id="surface47" clip-path="url(#clip15)">
<path style=" stroke:none;fill-rule:nonzero;fill:rgb(81.568627%,83.137255%,84.705882%);fill-opacity:1;" d="M 22.015625 28.570312 L 29.414062 28.570312 C 29.738281 28.570312 30 28.832031 30 29.15625 L 30 29.414062 C 30 29.738281 29.738281 30 29.414062 30 L 22.015625 30 C 21.691406 30 21.429688 29.738281 21.429688 29.414062 L 21.429688 29.15625 C 21.429688 28.832031 21.691406 28.570312 22.015625 28.570312 Z M 22.015625 28.570312 "/>
</g>
<mask id="mask15">
  <g filter="url(#alpha)">
<rect x="0" y="0" width="30" height="30" style="fill:rgb(0%,0%,0%);fill-opacity:0.501961;stroke:none;"/>
  </g>
</mask>
<clipPath id="clip16">
  <rect x="0" y="0" width="30" height="30"/>
</clipPath>
<g id="surface50" clip-path="url(#clip16)">
<path style=" stroke:none;fill-rule:nonzero;fill:rgb(81.568627%,83.137255%,84.705882%);fill-opacity:1;" d="M 10.585938 28.570312 L 19.414062 28.570312 C 19.738281 28.570312 20 28.832031 20 29.15625 L 20 29.414062 C 20 29.738281 19.738281 30 19.414062 30 L 10.585938 30 C 10.261719 30 10 29.738281 10 29.414062 L 10 29.15625 C 10 28.832031 10.261719 28.570312 10.585938 28.570312 Z M 10.585938 28.570312 "/>
</g>
<mask id="mask16">
  <g filter="url(#alpha)">
<rect x="0" y="0" width="30" height="30" style="fill:rgb(0%,0%,0%);fill-opacity:0.501961;stroke:none;"/>
  </g>
</mask>
<clipPath id="clip17">
  <rect x="0" y="0" width="30" height="30"/>
</clipPath>
<g id="surface53" clip-path="url(#clip17)">
<path style=" stroke:none;fill-rule:nonzero;fill:rgb(81.568627%,83.137255%,84.705882%);fill-opacity:1;" d="M 10.585938 8.570312 L 15.128906 8.570312 C 15.453125 8.570312 15.714844 8.832031 15.714844 9.15625 L 15.714844 9.414062 C 15.714844 9.738281 15.453125 10 15.128906 10 L 10.585938 10 C 10.261719 10 10 9.738281 10 9.414062 L 10 9.15625 C 10 8.832031 10.261719 8.570312 10.585938 8.570312 Z M 10.585938 8.570312 "/>
</g>
<mask id="mask17">
  <g filter="url(#alpha)">
<rect x="0" y="0" width="30" height="30" style="fill:rgb(0%,0%,0%);fill-opacity:0.501961;stroke:none;"/>
  </g>
</mask>
<clipPath id="clip18">
  <rect x="0" y="0" width="30" height="30"/>
</clipPath>
<g id="surface56" clip-path="url(#clip18)">
<path style=" stroke:none;fill-rule:nonzero;fill:rgb(81.568627%,83.137255%,84.705882%);fill-opacity:1;" d="M 10.585938 11.429688 L 15.128906 11.429688 C 15.453125 11.429688 15.714844 11.691406 15.714844 12.015625 L 15.714844 12.269531 C 15.714844 12.59375 15.453125 12.855469 15.128906 12.855469 L 10.585938 12.855469 C 10.261719 12.855469 10 12.59375 10 12.269531 L 10 12.015625 C 10 11.691406 10.261719 11.429688 10.585938 11.429688 Z M 10.585938 11.429688 "/>
</g>
</defs>
<g id="surface1">
<path style=" stroke:none;fill-rule:nonzero;fill:rgb(33.72549%,70.196078%,70.588235%);fill-opacity:1;" d="M 22.015625 5.714844 L 23.699219 5.714844 C 24.023438 5.714844 24.285156 5.976562 24.285156 6.300781 L 24.285156 6.558594 C 24.285156 6.878906 24.023438 7.144531 23.699219 7.144531 L 22.015625 7.144531 C 21.691406 7.144531 21.429688 6.878906 21.429688 6.558594 L 21.429688 6.300781 C 21.429688 5.976562 21.691406 5.714844 22.015625 5.714844 Z M 22.015625 5.714844 "/>
<path style=" stroke:none;fill-rule:nonzero;fill:rgb(91.764706%,36.862745%,36.862745%);fill-opacity:1;" d="M 0.585938 28.570312 L 7.984375 28.570312 C 8.308594 28.570312 8.570312 28.832031 8.570312 29.15625 L 8.570312 29.414062 C 8.570312 29.738281 8.308594 30 7.984375 30 L 0.585938 30 C 0.261719 30 0 29.738281 0 29.414062 L 0 29.15625 C 0 28.832031 0.261719 28.570312 0.585938 28.570312 Z M 0.585938 28.570312 "/>
<path style=" stroke:none;fill-rule:nonzero;fill:rgb(74.901961%,52.156863%,74.901961%);fill-opacity:1;" d="M 17.730469 17.144531 L 22.269531 17.144531 C 22.59375 17.144531 22.855469 17.40625 22.855469 17.730469 L 22.855469 17.984375 C 22.855469 18.308594 22.59375 18.570312 22.269531 18.570312 L 17.730469 18.570312 C 17.40625 18.570312 17.144531 18.308594 17.144531 17.984375 L 17.144531 17.730469 C 17.144531 17.40625 17.40625 17.144531 17.730469 17.144531 Z M 17.730469 17.144531 "/>
<path style=" stroke:none;fill-rule:nonzero;fill:rgb(91.764706%,36.862745%,36.862745%);fill-opacity:1;" d="M 9.15625 17.144531 L 15.128906 17.144531 C 15.453125 17.144531 15.714844 17.40625 15.714844 17.730469 L 15.714844 17.984375 C 15.714844 18.308594 15.453125 18.570312 15.128906 18.570312 L 9.15625 18.570312 C 8.832031 18.570312 8.570312 18.308594 8.570312 17.984375 L 8.570312 17.730469 C 8.570312 17.40625 8.832031 17.144531 9.15625 17.144531 Z M 9.15625 17.144531 "/>
<path style=" stroke:none;fill-rule:nonzero;fill:rgb(33.72549%,70.196078%,70.588235%);fill-opacity:1;" d="M 0.585938 17.144531 L 6.558594 17.144531 C 6.878906 17.144531 7.144531 17.40625 7.144531 17.730469 L 7.144531 17.984375 C 7.144531 18.308594 6.878906 18.570312 6.558594 18.570312 L 0.585938 18.570312 C 0.261719 18.570312 0 18.308594 0 17.984375 L 0 17.730469 C 0 17.40625 0.261719 17.144531 0.585938 17.144531 Z M 0.585938 17.144531 "/>
<path style=" stroke:none;fill-rule:nonzero;fill:rgb(74.901961%,52.156863%,74.901961%);fill-opacity:1;" d="M 0.585938 22.855469 L 7.984375 22.855469 C 8.308594 22.855469 8.570312 23.121094 8.570312 23.441406 L 8.570312 23.699219 C 8.570312 24.023438 8.308594 24.285156 7.984375 24.285156 L 0.585938 24.285156 C 0.261719 24.285156 0 24.023438 0 23.699219 L 0 23.441406 C 0 23.121094 0.261719 22.855469 0.585938 22.855469 Z M 0.585938 22.855469 "/>
<path style=" stroke:none;fill-rule:nonzero;fill:rgb(74.901961%,52.156863%,74.901961%);fill-opacity:1;" d="M 0.585938 11.429688 L 7.984375 11.429688 C 8.308594 11.429688 8.570312 11.691406 8.570312 12.015625 L 8.570312 12.269531 C 8.570312 12.59375 8.308594 12.855469 7.984375 12.855469 L 0.585938 12.855469 C 0.261719 12.855469 0 12.59375 0 12.269531 L 0 12.015625 C 0 11.691406 0.261719 11.429688 0.585938 11.429688 Z M 0.585938 11.429688 "/>
<path style=" stroke:none;fill-rule:nonzero;fill:rgb(96.862745%,72.941176%,24.313725%);fill-opacity:1;" d="M 7.730469 2.855469 L 22.269531 2.855469 C 22.59375 2.855469 22.855469 3.121094 22.855469 3.441406 L 22.855469 3.699219 C 22.855469 4.023438 22.59375 4.285156 22.269531 4.285156 L 7.730469 4.285156 C 7.40625 4.285156 7.144531 4.023438 7.144531 3.699219 L 7.144531 3.441406 C 7.144531 3.121094 7.40625 2.855469 7.730469 2.855469 Z M 7.730469 2.855469 "/>
<path style=" stroke:none;fill-rule:nonzero;fill:rgb(91.764706%,36.862745%,36.862745%);fill-opacity:1;" d="M 0.585938 2.855469 L 5.128906 2.855469 C 5.453125 2.855469 5.714844 3.121094 5.714844 3.441406 L 5.714844 3.699219 C 5.714844 4.023438 5.453125 4.285156 5.128906 4.285156 L 0.585938 4.285156 C 0.261719 4.285156 0 4.023438 0 3.699219 L 0 3.441406 C 0 3.121094 0.261719 2.855469 0.585938 2.855469 Z M 0.585938 2.855469 "/>
<path style=" stroke:none;fill-rule:nonzero;fill:rgb(96.862745%,72.941176%,24.313725%);fill-opacity:1;" d="M 6.300781 25.714844 L 7.984375 25.714844 C 8.308594 25.714844 8.570312 25.976562 8.570312 26.300781 L 8.570312 26.558594 C 8.570312 26.878906 8.308594 27.144531 7.984375 27.144531 L 6.300781 27.144531 C 5.976562 27.144531 5.714844 26.878906 5.714844 26.558594 L 5.714844 26.300781 C 5.714844 25.976562 5.976562 25.714844 6.300781 25.714844 Z M 6.300781 25.714844 "/>
<path style=" stroke:none;fill-rule:nonzero;fill:rgb(33.72549%,70.196078%,70.588235%);fill-opacity:1;" d="M 6.300781 8.570312 L 7.984375 8.570312 C 8.308594 8.570312 8.570312 8.832031 8.570312 9.15625 L 8.570312 9.414062 C 8.570312 9.738281 8.308594 10 7.984375 10 L 6.300781 10 C 5.976562 10 5.714844 9.738281 5.714844 9.414062 L 5.714844 9.15625 C 5.714844 8.832031 5.976562 8.570312 6.300781 8.570312 Z M 6.300781 8.570312 "/>
<path style=" stroke:none;fill-rule:nonzero;fill:rgb(33.72549%,70.196078%,70.588235%);fill-opacity:1;" d="M 0.585938 25.714844 L 3.699219 25.714844 C 4.023438 25.714844 4.285156 25.976562 4.285156 26.300781 L 4.285156 26.558594 C 4.285156 26.878906 4.023438 27.144531 3.699219 27.144531 L 0.585938 27.144531 C 0.261719 27.144531 0 26.878906 0 26.558594 L 0 26.300781 C 0 25.976562 0.261719 25.714844 0.585938 25.714844 Z M 0.585938 25.714844 "/>
<path style=" stroke:none;fill-rule:nonzero;fill:rgb(96.862745%,72.941176%,24.313725%);fill-opacity:1;" d="M 0.585938 8.570312 L 3.699219 8.570312 C 4.023438 8.570312 4.285156 8.832031 4.285156 9.15625 L 4.285156 9.414062 C 4.285156 9.738281 4.023438 10 3.699219 10 L 0.585938 10 C 0.261719 10 0 9.738281 0 9.414062 L 0 9.15625 C 0 8.832031 0.261719 8.570312 0.585938 8.570312 Z M 0.585938 8.570312 "/>
<use xlink:href="#surface5" mask="url(#mask0)"/>
<use xlink:href="#surface8" mask="url(#mask1)"/>
<use xlink:href="#surface11" mask="url(#mask2)"/>
<path style=" stroke:none;fill-rule:nonzero;fill:rgb(33.72549%,70.196078%,70.588235%);fill-opacity:1;" d="M 12.015625 14.285156 L 23.699219 14.285156 C 24.023438 14.285156 24.285156 14.546875 24.285156 14.871094 L 24.285156 15.128906 C 24.285156 15.453125 24.023438 15.714844 23.699219 15.714844 L 12.015625 15.714844 C 11.691406 15.714844 11.429688 15.453125 11.429688 15.128906 L 11.429688 14.871094 C 11.429688 14.546875 11.691406 14.285156 12.015625 14.285156 Z M 12.015625 14.285156 "/>
<path style=" stroke:none;fill-rule:nonzero;fill:rgb(96.862745%,72.941176%,24.313725%);fill-opacity:1;" d="M 4.871094 14.285156 L 9.414062 14.285156 C 9.738281 14.285156 10 14.546875 10 14.871094 L 10 15.128906 C 10 15.453125 9.738281 15.714844 9.414062 15.714844 L 4.871094 15.714844 C 4.546875 15.714844 4.285156 15.453125 4.285156 15.128906 L 4.285156 14.871094 C 4.285156 14.546875 4.546875 14.285156 4.871094 14.285156 Z M 4.871094 14.285156 "/>
<path style=" stroke:none;fill-rule:nonzero;fill:rgb(91.764706%,36.862745%,36.862745%);fill-opacity:1;" d="M 0.585938 14.285156 L 2.269531 14.285156 C 2.59375 14.285156 2.855469 14.546875 2.855469 14.871094 L 2.855469 15.128906 C 2.855469 15.453125 2.59375 15.714844 2.269531 15.714844 L 0.585938 15.714844 C 0.261719 15.714844 0 15.453125 0 15.128906 L 0 14.871094 C 0 14.546875 0.261719 14.285156 0.585938 14.285156 Z M 0.585938 14.285156 "/>
<path style=" stroke:none;fill-rule:nonzero;fill:rgb(74.901961%,52.156863%,74.901961%);fill-opacity:1;" d="M 13.441406 5.714844 L 19.414062 5.714844 C 19.738281 5.714844 20 5.976562 20 6.300781 L 20 6.558594 C 20 6.878906 19.738281 7.144531 19.414062 7.144531 L 13.441406 7.144531 C 13.121094 7.144531 12.855469 6.878906 12.855469 6.558594 L 12.855469 6.300781 C 12.855469 5.976562 13.121094 5.714844 13.441406 5.714844 Z M 13.441406 5.714844 "/>
<path style=" stroke:none;fill-rule:nonzero;fill:rgb(33.72549%,70.196078%,70.588235%);fill-opacity:1;" d="M 0.585938 5.714844 L 10.84375 5.714844 C 11.167969 5.714844 11.429688 5.976562 11.429688 6.300781 L 11.429688 6.558594 C 11.429688 6.878906 11.167969 7.144531 10.84375 7.144531 L 0.585938 7.144531 C 0.261719 7.144531 0 6.878906 0 6.558594 L 0 6.300781 C 0 5.976562 0.261719 5.714844 0.585938 5.714844 Z M 0.585938 5.714844 "/>
<path style=" stroke:none;fill-rule:nonzero;fill:rgb(96.862745%,72.941176%,24.313725%);fill-opacity:1;" d="M 4.871094 20 L 17.984375 20 C 18.308594 20 18.570312 20.261719 18.570312 20.585938 L 18.570312 20.84375 C 18.570312 21.167969 18.308594 21.429688 17.984375 21.429688 L 4.871094 21.429688 C 4.546875 21.429688 4.285156 21.167969 4.285156 20.84375 L 4.285156 20.585938 C 4.285156 20.261719 4.546875 20 4.871094 20 Z M 4.871094 20 "/>
<path style=" stroke:none;fill-rule:nonzero;fill:rgb(74.901961%,52.156863%,74.901961%);fill-opacity:1;" d="M 0.585938 20 L 2.269531 20 C 2.59375 20 2.855469 20.261719 2.855469 20.585938 L 2.855469 20.84375 C 2.855469 21.167969 2.59375 21.429688 2.269531 21.429688 L 0.585938 21.429688 C 0.261719 21.429688 0 21.167969 0 20.84375 L 0 20.585938 C 0 20.261719 0.261719 20 0.585938 20 Z M 0.585938 20 "/>
<path style=" stroke:none;fill-rule:nonzero;fill:rgb(91.764706%,36.862745%,36.862745%);fill-opacity:1;" d="M 17.730469 8.570312 L 25.128906 8.570312 C 25.453125 8.570312 25.714844 8.832031 25.714844 9.15625 L 25.714844 9.414062 C 25.714844 9.738281 25.453125 10 25.128906 10 L 17.730469 10 C 17.40625 10 17.144531 9.738281 17.144531 9.414062 L 17.144531 9.15625 C 17.144531 8.832031 17.40625 8.570312 17.730469 8.570312 Z M 17.730469 8.570312 "/>
<path style=" stroke:none;fill-rule:nonzero;fill:rgb(96.862745%,72.941176%,24.313725%);fill-opacity:1;" d="M 17.730469 11.429688 L 25.128906 11.429688 C 25.453125 11.429688 25.714844 11.691406 25.714844 12.015625 L 25.714844 12.269531 C 25.714844 12.59375 25.453125 12.855469 25.128906 12.855469 L 17.730469 12.855469 C 17.40625 12.855469 17.144531 12.59375 17.144531 12.269531 L 17.144531 12.015625 C 17.144531 11.691406 17.40625 11.429688 17.730469 11.429688 Z M 17.730469 11.429688 "/>
<path style=" stroke:none;fill-rule:nonzero;fill:rgb(33.72549%,70.196078%,70.588235%);fill-opacity:1;" d="M 0.585938 0 L 17.984375 0 C 18.308594 0 18.570312 0.261719 18.570312 0.585938 L 18.570312 0.84375 C 18.570312 1.167969 18.308594 1.429688 17.984375 1.429688 L 0.585938 1.429688 C 0.261719 1.429688 0 1.167969 0 0.84375 L 0 0.585938 C 0 0.261719 0.261719 0 0.585938 0 Z M 0.585938 0 "/>
<use xlink:href="#surface14" mask="url(#mask3)"/>
<use xlink:href="#surface17" mask="url(#mask4)"/>
<use xlink:href="#surface20" mask="url(#mask5)"/>
<use xlink:href="#surface23" mask="url(#mask6)"/>
<use xlink:href="#surface26" mask="url(#mask7)"/>
<use xlink:href="#surface29" mask="url(#mask8)"/>
<use xlink:href="#surface32" mask="url(#mask9)"/>
<use xlink:href="#surface35" mask="url(#mask10)"/>
<use xlink:href="#surface38" mask="url(#mask11)"/>
<use xlink:href="#surface41" mask="url(#mask12)"/>
<use xlink:href="#surface44" mask="url(#mask13)"/>
<use xlink:href="#surface47" mask="url(#mask14)"/>
<use xlink:href="#surface50" mask="url(#mask15)"/>
<use xlink:href="#surface53" mask="url(#mask16)"/>
<use xlink:href="#surface56" mask="url(#mask17)"/>
</g>
</svg>
