<?xml version="1.0" encoding="UTF-8"?>
<svg xmlns="http://www.w3.org/2000/svg" xmlns:xlink="http://www.w3.org/1999/xlink" width="30pt" height="30pt" viewBox="0 0 30 30" version="1.1">
<g id="surface1">
<path style=" stroke:none;fill-rule:nonzero;fill:rgb(18.431373%,25.098039%,41.568627%);fill-opacity:1;" d="M 24.25 9.570312 L 24.25 20.382812 L 15.066406 25.769531 L 14.980469 25.847656 L 14.980469 29.921875 L 15.066406 30 L 27.996094 22.53125 L 27.996094 7.46875 L 27.875 7.46875 L 24.226562 9.507812 L 24.226562 9.59375 "/>
<path style=" stroke:none;fill-rule:nonzero;fill:rgb(13.72549%,47.45098%,74.117647%);fill-opacity:1;" d="M 5.851562 20.460938 L 15.082031 25.808594 L 15.082031 30 L 2.042969 22.5 L 2.042969 7.5 L 2.171875 7.5 L 5.8125 9.617188 L 5.851562 9.738281 L 5.851562 20.507812 "/>
<path style=" stroke:none;fill-rule:nonzero;fill:rgb(1.176471%,68.627451%,93.72549%);fill-opacity:1;" d="M 5.851562 9.714844 L 2.003906 7.5 L 15.035156 0 L 27.996094 7.46875 L 24.25 9.570312 L 15.019531 4.316406 L 5.835938 9.699219 "/>
<path style=" stroke:none;fill-rule:nonzero;fill:rgb(18.431373%,25.098039%,41.568627%);fill-opacity:1;" d="M 14.902344 19.222656 L 14.804688 19.125 L 14.804688 15.070312 L 14.902344 15.015625 L 14.902344 14.917969 L 18.378906 12.886719 L 18.488281 12.886719 L 18.488281 17.070312 L 14.882812 19.207031 "/>
<path style=" stroke:none;fill-rule:nonzero;fill:rgb(13.72549%,47.45098%,74.117647%);fill-opacity:1;" d="M 11.234375 17.222656 L 11.234375 12.875 L 11.335938 12.875 L 14.875 14.9375 L 14.875 19.230469 L 11.203125 17.222656 "/>
<path style=" stroke:none;fill-rule:nonzero;fill:rgb(1.176471%,68.627451%,93.72549%);fill-opacity:1;" d="M 14.84375 10.746094 L 11.234375 12.882812 L 14.902344 15 L 18.511719 12.890625 L 14.84375 10.722656 "/>
<path style=" stroke:none;fill-rule:nonzero;fill:rgb(18.431373%,25.098039%,41.568627%);fill-opacity:1;" d="M 10.410156 21.875 L 10.3125 21.777344 L 10.3125 17.714844 L 10.410156 17.660156 L 10.410156 17.5625 L 13.886719 15.53125 L 13.996094 15.53125 L 13.996094 19.714844 L 10.386719 21.855469 "/>
<path style=" stroke:none;fill-rule:nonzero;fill:rgb(13.72549%,47.45098%,74.117647%);fill-opacity:1;" d="M 6.742188 19.871094 L 6.742188 15.523438 L 6.84375 15.523438 L 10.382812 17.585938 L 10.382812 21.878906 L 6.742188 19.871094 "/>
<path style=" stroke:none;fill-rule:nonzero;fill:rgb(1.176471%,68.627451%,93.72549%);fill-opacity:1;" d="M 10.359375 13.390625 L 6.742188 15.523438 L 10.410156 17.660156 L 14.019531 15.554688 L 10.347656 13.382812 "/>
<path style=" stroke:none;fill-rule:nonzero;fill:rgb(18.431373%,25.098039%,41.568627%);fill-opacity:1;" d="M 19.71875 21.976562 L 19.621094 21.878906 L 19.621094 17.816406 L 19.71875 17.761719 L 19.71875 17.660156 L 23.195312 15.632812 L 23.304688 15.632812 L 23.304688 19.816406 L 19.695312 21.953125 "/>
<path style=" stroke:none;fill-rule:nonzero;fill:rgb(13.72549%,47.45098%,74.117647%);fill-opacity:1;" d="M 16.050781 19.96875 L 16.050781 15.625 L 16.164062 15.625 L 19.703125 17.683594 L 19.703125 21.976562 L 16.035156 19.96875 "/>
<path style=" stroke:none;fill-rule:nonzero;fill:rgb(1.176471%,68.627451%,93.72549%);fill-opacity:1;" d="M 19.65625 13.460938 L 16.050781 15.601562 L 19.71875 17.738281 L 23.328125 15.632812 L 19.65625 13.460938 "/>
<path style=" stroke:none;fill-rule:nonzero;fill:rgb(18.431373%,25.098039%,41.568627%);fill-opacity:1;" d="M 15.226562 24.625 L 15.128906 24.523438 L 15.128906 20.460938 L 15.226562 20.40625 L 15.226562 20.308594 L 18.703125 18.277344 L 18.8125 18.277344 L 18.8125 22.460938 L 15.203125 24.597656 "/>
<path style=" stroke:none;fill-rule:nonzero;fill:rgb(13.72549%,47.45098%,74.117647%);fill-opacity:1;" d="M 11.550781 22.617188 L 11.550781 18.277344 L 11.648438 18.277344 L 15.1875 20.339844 L 15.1875 24.628906 L 11.550781 22.613281 "/>
<path style=" stroke:none;fill-rule:nonzero;fill:rgb(1.176471%,68.627451%,93.72549%);fill-opacity:1;" d="M 15.164062 16.140625 L 11.550781 18.277344 L 15.226562 20.382812 L 18.835938 18.277344 L 15.164062 16.136719 "/>
<path style=" stroke:none;fill-rule:nonzero;fill:rgb(18.431373%,25.098039%,41.568627%);fill-opacity:1;" d="M 14.902344 13.460938 L 14.804688 13.363281 L 14.804688 9.316406 L 14.902344 9.261719 L 14.902344 9.160156 L 18.378906 7.132812 L 18.488281 7.132812 L 18.488281 11.316406 L 14.902344 13.460938 "/>
<path style=" stroke:none;fill-rule:nonzero;fill:rgb(13.72549%,47.45098%,74.117647%);fill-opacity:1;" d="M 11.234375 11.46875 L 11.234375 7.125 L 11.335938 7.125 L 14.875 9.183594 L 14.875 13.460938 L 11.203125 11.453125 "/>
<path style=" stroke:none;fill-rule:nonzero;fill:rgb(1.176471%,68.627451%,93.72549%);fill-opacity:1;" d="M 14.84375 5 L 11.234375 7.136719 L 14.90625 9.277344 L 18.511719 7.167969 L 14.84375 5 "/>
<path style=" stroke:none;fill-rule:nonzero;fill:rgb(18.431373%,25.098039%,41.568627%);fill-opacity:1;" d="M 10.410156 16.117188 L 10.3125 16.015625 L 10.3125 11.921875 L 10.410156 11.871094 L 10.410156 11.769531 L 13.886719 9.738281 L 13.996094 9.738281 L 13.996094 13.921875 L 10.386719 16.0625 "/>
<path style=" stroke:none;fill-rule:nonzero;fill:rgb(13.72549%,47.45098%,74.117647%);fill-opacity:1;" d="M 6.742188 14.117188 L 6.742188 9.769531 L 6.84375 9.769531 L 10.382812 11.832031 L 10.382812 16.121094 L 6.742188 14.113281 "/>
<path style=" stroke:none;fill-rule:nonzero;fill:rgb(1.176471%,68.627451%,93.72549%);fill-opacity:1;" d="M 10.359375 7.636719 L 6.742188 9.769531 L 10.410156 11.921875 L 14.019531 9.816406 L 10.347656 7.644531 "/>
<path style=" stroke:none;fill-rule:nonzero;fill:rgb(18.431373%,25.098039%,41.568627%);fill-opacity:1;" d="M 19.71875 16.214844 L 19.621094 16.117188 L 19.621094 12.0625 L 19.71875 12.007812 L 19.71875 11.90625 L 23.195312 9.875 L 23.304688 9.875 L 23.304688 14.0625 L 19.695312 16.199219 "/>
<path style=" stroke:none;fill-rule:nonzero;fill:rgb(13.72549%,47.45098%,74.117647%);fill-opacity:1;" d="M 16.050781 14.230469 L 16.050781 9.871094 L 16.164062 9.871094 L 19.6875 11.921875 L 19.6875 16.214844 L 16.050781 14.230469 "/>
<path style=" stroke:none;fill-rule:nonzero;fill:rgb(1.176471%,68.627451%,93.72549%);fill-opacity:1;" d="M 19.65625 7.738281 L 16.050781 9.875 L 19.71875 12.015625 L 23.328125 9.90625 L 19.65625 7.738281 "/>
<path style=" stroke:none;fill-rule:nonzero;fill:rgb(18.431373%,25.098039%,41.568627%);fill-opacity:1;" d="M 15.226562 18.847656 L 15.128906 18.746094 L 15.128906 14.707031 L 15.226562 14.652344 L 15.226562 14.554688 L 18.703125 12.523438 L 18.8125 12.523438 L 18.8125 16.707031 L 15.226562 18.847656 "/>
<path style=" stroke:none;fill-rule:nonzero;fill:rgb(13.72549%,47.45098%,74.117647%);fill-opacity:1;" d="M 11.550781 16.859375 L 11.550781 12.515625 L 11.648438 12.515625 L 15.1875 14.578125 L 15.1875 18.847656 L 11.550781 16.859375 "/>
<path style=" stroke:none;fill-rule:nonzero;fill:rgb(1.176471%,68.627451%,93.72549%);fill-opacity:1;" d="M 15.164062 10.382812 L 11.550781 12.515625 L 15.21875 14.652344 L 18.828125 12.546875 L 15.164062 10.386719 "/>
</g>
</svg>
