<?xml version="1.0" encoding="UTF-8"?>
<svg xmlns="http://www.w3.org/2000/svg" xmlns:xlink="http://www.w3.org/1999/xlink" width="30pt" height="30pt" viewBox="0 0 30 30" version="1.1">
<g id="surface1">
<path style=" stroke:none;fill-rule:nonzero;fill:rgb(0%,0%,0%);fill-opacity:1;" d="M 29.6875 23.070312 C 28.621094 23.34375 27.957031 23.082031 27.367188 22.191406 C 26.035156 20.199219 24.566406 18.296875 23.148438 16.355469 C 22.964844 16.105469 22.773438 15.859375 22.539062 15.546875 C 20.859375 17.8125 19.183594 19.96875 17.609375 22.210938 C 17.046875 23.011719 16.457031 23.363281 15.40625 23.078125 L 21.71875 14.609375 L 15.84375 6.964844 C 16.855469 6.765625 17.550781 6.867188 18.171875 7.773438 C 19.539062 9.769531 21.042969 11.667969 22.546875 13.679688 C 24.058594 11.675781 25.546875 9.773438 26.953125 7.796875 C 27.519531 6.992188 28.125 6.6875 29.140625 6.984375 C 28.371094 8.003906 27.617188 9.007812 26.863281 10.003906 C 25.839844 11.347656 24.835938 12.707031 23.777344 14.019531 C 23.398438 14.488281 23.460938 14.792969 23.796875 15.238281 C 25.757812 17.8125 27.695312 20.414062 29.6875 23.070312 Z M 0.3125 14.46875 C 0.480469 13.625 0.59375 12.761719 0.828125 11.933594 C 2.234375 6.910156 8 4.820312 11.960938 7.933594 C 14.28125 9.757812 14.855469 12.332031 14.742188 15.234375 L 1.664062 15.234375 C 1.46875 20.441406 5.214844 23.582031 9.992188 21.980469 C 11.667969 21.417969 12.652344 20.105469 13.148438 18.464844 C 13.398438 17.640625 13.8125 17.511719 14.585938 17.746094 C 14.191406 19.800781 13.292969 21.515625 11.417969 22.589844 C 8.605469 24.195312 4.589844 23.675781 2.480469 21.441406 C 1.234375 20.128906 0.703125 18.496094 0.46875 16.730469 C 0.433594 16.449219 0.359375 16.175781 0.304688 15.894531 C 0.308594 15.421875 0.3125 14.945312 0.3125 14.46875 Z M 1.6875 14.121094 L 13.507812 14.121094 C 13.429688 10.355469 11.085938 7.683594 7.882812 7.660156 C 4.367188 7.632812 1.839844 10.242188 1.6875 14.121094 Z M 1.6875 14.121094 "/>
</g>
</svg>
