<?xml version="1.0" encoding="UTF-8"?>
<svg xmlns="http://www.w3.org/2000/svg" xmlns:xlink="http://www.w3.org/1999/xlink" width="30pt" height="33pt" viewBox="0 0 30 33" version="1.1">
<g id="surface1">
<path style=" stroke:none;fill-rule:nonzero;fill:rgb(54.901961%,78.431373%,29.411765%);fill-opacity:1;" d="M 13.648438 0.417969 C 14.464844 -0.046875 15.527344 -0.0507812 16.34375 0.417969 C 20.441406 2.734375 24.542969 5.042969 28.644531 7.359375 C 29.414062 7.792969 29.929688 8.648438 29.921875 9.535156 L 29.921875 23.457031 C 29.929688 24.382812 29.363281 25.261719 28.546875 25.683594 C 24.460938 27.984375 20.378906 30.289062 16.292969 32.589844 C 15.457031 33.066406 14.375 33.03125 13.570312 32.515625 C 12.34375 31.804688 11.117188 31.101562 9.890625 30.390625 C 9.640625 30.242188 9.359375 30.125 9.179688 29.882812 C 9.335938 29.671875 9.617188 29.644531 9.84375 29.550781 C 10.355469 29.390625 10.824219 29.128906 11.296875 28.875 C 11.414062 28.796875 11.558594 28.828125 11.671875 28.898438 C 12.71875 29.5 13.757812 30.117188 14.808594 30.710938 C 15.035156 30.839844 15.261719 30.667969 15.453125 30.5625 C 19.464844 28.296875 23.476562 26.042969 27.488281 23.777344 C 27.636719 23.707031 27.71875 23.550781 27.707031 23.386719 C 27.710938 18.792969 27.707031 14.199219 27.707031 9.609375 C 27.726562 9.425781 27.617188 9.253906 27.449219 9.179688 C 23.378906 6.886719 19.308594 4.59375 15.238281 2.300781 C 15.09375 2.203125 14.902344 2.203125 14.757812 2.300781 C 10.683594 4.59375 6.617188 6.890625 2.542969 9.179688 C 2.378906 9.257812 2.265625 9.421875 2.285156 9.609375 C 2.285156 14.199219 2.285156 18.792969 2.285156 23.386719 C 2.269531 23.550781 2.359375 23.703125 2.507812 23.773438 C 3.59375 24.390625 4.679688 25 5.769531 25.613281 C 6.382812 25.941406 7.132812 26.136719 7.808594 25.886719 C 8.402344 25.671875 8.820312 25.066406 8.808594 24.433594 C 8.816406 19.867188 8.808594 15.300781 8.8125 10.738281 C 8.800781 10.535156 8.992188 10.367188 9.1875 10.386719 C 9.710938 10.382812 10.234375 10.378906 10.757812 10.386719 C 10.972656 10.382812 11.125 10.601562 11.097656 10.804688 C 11.09375 15.398438 11.101562 19.996094 11.09375 24.589844 C 11.09375 25.8125 10.589844 27.144531 9.457031 27.746094 C 8.058594 28.46875 6.332031 28.316406 4.953125 27.621094 C 3.757812 27.027344 2.617188 26.324219 1.445312 25.683594 C 0.628906 25.261719 0.0664062 24.382812 0.0703125 23.457031 L 0.0703125 9.535156 C 0.0625 8.632812 0.597656 7.757812 1.394531 7.332031 C 5.480469 5.027344 9.566406 2.722656 13.648438 0.417969 Z M 13.648438 0.417969 "/>
<path style=" stroke:none;fill-rule:nonzero;fill:rgb(54.901961%,78.431373%,29.411765%);fill-opacity:1;" d="M 17.214844 10.0625 C 18.996094 9.949219 20.902344 9.996094 22.507812 10.871094 C 23.75 11.542969 24.4375 12.953125 24.460938 14.332031 C 24.425781 14.515625 24.230469 14.621094 24.054688 14.605469 C 23.535156 14.605469 23.019531 14.613281 22.5 14.605469 C 22.28125 14.613281 22.15625 14.410156 22.128906 14.214844 C 21.980469 13.558594 21.617188 12.902344 20.996094 12.585938 C 20.042969 12.109375 18.9375 12.132812 17.898438 12.144531 C 17.140625 12.183594 16.324219 12.25 15.679688 12.695312 C 15.1875 13.03125 15.035156 13.714844 15.210938 14.265625 C 15.378906 14.65625 15.835938 14.785156 16.207031 14.902344 C 18.355469 15.464844 20.628906 15.40625 22.738281 16.144531 C 23.609375 16.445312 24.460938 17.03125 24.761719 17.945312 C 25.152344 19.167969 24.980469 20.628906 24.109375 21.609375 C 23.402344 22.417969 22.375 22.855469 21.347656 23.09375 C 19.984375 23.398438 18.570312 23.40625 17.183594 23.269531 C 15.878906 23.125 14.523438 22.78125 13.515625 21.894531 C 12.65625 21.148438 12.238281 19.984375 12.277344 18.863281 C 12.289062 18.675781 12.476562 18.542969 12.660156 18.558594 C 13.179688 18.554688 13.699219 18.550781 14.222656 18.558594 C 14.429688 18.542969 14.582031 18.722656 14.59375 18.917969 C 14.691406 19.546875 14.925781 20.207031 15.476562 20.578125 C 16.53125 21.261719 17.859375 21.214844 19.074219 21.234375 C 20.078125 21.1875 21.203125 21.175781 22.023438 20.511719 C 22.453125 20.132812 22.582031 19.503906 22.464844 18.957031 C 22.339844 18.5 21.859375 18.285156 21.445312 18.144531 C 19.324219 17.476562 17.023438 17.71875 14.925781 16.960938 C 14.070312 16.660156 13.246094 16.089844 12.921875 15.214844 C 12.464844 13.976562 12.671875 12.445312 13.636719 11.5 C 14.574219 10.554688 15.925781 10.191406 17.214844 10.0625 Z M 17.214844 10.0625 "/>
</g>
</svg>
