<?xml version="1.0" encoding="UTF-8"?>
<svg xmlns="http://www.w3.org/2000/svg" xmlns:xlink="http://www.w3.org/1999/xlink" width="30pt" height="30pt" viewBox="0 0 30 30" version="1.1">
<g id="surface1">
<path style=" stroke:none;fill-rule:nonzero;fill:rgb(38.039216%,85.490196%,98.431373%);fill-opacity:1;" d="M 17.671875 15 C 17.671875 16.476562 16.476562 17.671875 15 17.671875 C 13.523438 17.671875 12.328125 16.476562 12.328125 15 C 12.328125 13.523438 13.523438 12.328125 15 12.328125 C 16.476562 12.328125 17.671875 13.523438 17.671875 15 Z M 17.671875 15 "/>
<path style=" stroke:none;fill-rule:nonzero;fill:rgb(38.039216%,85.490196%,98.431373%);fill-opacity:1;" d="M 25.148438 10.59375 C 24.632812 10.40625 24.09375 10.21875 23.53125 10.054688 C 23.671875 9.492188 23.789062 8.929688 23.882812 8.390625 C 24.375 5.296875 23.835938 3.117188 22.335938 2.273438 C 21.890625 2.015625 21.398438 1.898438 20.835938 1.898438 C 19.195312 1.898438 17.109375 3.117188 15 5.15625 C 12.890625 3.117188 10.804688 1.898438 9.164062 1.898438 C 8.601562 1.898438 8.109375 2.015625 7.664062 2.273438 C 6.164062 3.140625 5.625 5.320312 6.117188 8.390625 C 6.210938 8.929688 6.328125 9.492188 6.46875 10.054688 C 5.90625 10.21875 5.367188 10.382812 4.851562 10.59375 C 1.921875 11.71875 0.328125 13.265625 0.328125 15 C 0.328125 16.734375 1.945312 18.28125 4.851562 19.40625 C 5.367188 19.59375 5.90625 19.78125 6.46875 19.945312 C 6.328125 20.507812 6.210938 21.070312 6.117188 21.609375 C 5.625 24.703125 6.164062 26.882812 7.664062 27.726562 C 8.109375 27.984375 8.601562 28.101562 9.164062 28.101562 C 10.828125 28.101562 12.914062 26.882812 15 24.84375 C 17.109375 26.882812 19.195312 28.101562 20.835938 28.101562 C 21.398438 28.101562 21.890625 27.984375 22.335938 27.726562 C 23.835938 26.859375 24.375 24.679688 23.882812 21.609375 C 23.789062 21.070312 23.671875 20.507812 23.53125 19.945312 C 24.09375 19.78125 24.632812 19.617188 25.148438 19.40625 C 28.078125 18.28125 29.671875 16.734375 29.671875 15 C 29.671875 13.265625 28.078125 11.71875 25.148438 10.59375 Z M 21.679688 3.445312 C 22.640625 4.007812 22.96875 5.742188 22.570312 8.203125 C 22.5 8.695312 22.382812 9.210938 22.242188 9.75 C 21.023438 9.46875 19.734375 9.28125 18.375 9.164062 C 17.578125 8.039062 16.757812 7.03125 15.9375 6.117188 C 17.671875 4.40625 19.429688 3.234375 20.859375 3.234375 C 21.164062 3.234375 21.445312 3.304688 21.679688 3.445312 Z M 19.054688 17.34375 C 18.632812 18.09375 18.140625 18.84375 17.625 19.59375 C 16.757812 19.664062 15.890625 19.6875 15 19.6875 C 14.085938 19.6875 13.21875 19.664062 12.375 19.59375 C 11.859375 18.84375 11.390625 18.09375 10.96875 17.34375 C 10.523438 16.570312 10.101562 15.773438 9.726562 15 C 10.101562 14.226562 10.523438 13.429688 10.96875 12.65625 C 11.390625 11.90625 11.882812 11.15625 12.398438 10.40625 C 13.265625 10.335938 14.132812 10.3125 15.023438 10.3125 C 15.9375 10.3125 16.804688 10.335938 17.648438 10.40625 C 18.164062 11.15625 18.632812 11.90625 19.054688 12.65625 C 19.5 13.429688 19.921875 14.226562 20.296875 15 C 19.898438 15.773438 19.5 16.546875 19.054688 17.34375 Z M 21 16.570312 C 21.351562 17.390625 21.632812 18.1875 21.890625 18.984375 C 21.09375 19.171875 20.25 19.3125 19.359375 19.429688 C 19.640625 18.984375 19.945312 18.515625 20.203125 18.023438 C 20.484375 17.53125 20.742188 17.039062 21 16.570312 Z M 15 22.921875 C 14.4375 22.3125 13.898438 21.65625 13.382812 20.976562 C 13.921875 21 14.460938 21.023438 15 21.023438 C 15.539062 21.023438 16.078125 21 16.617188 20.976562 C 16.101562 21.65625 15.5625 22.3125 15 22.921875 Z M 10.640625 19.40625 C 9.75 19.289062 8.90625 19.148438 8.109375 18.960938 C 8.367188 18.1875 8.648438 17.367188 9 16.546875 C 9.257812 17.015625 9.515625 17.507812 9.796875 17.976562 C 10.078125 18.492188 10.359375 18.9375 10.640625 19.40625 Z M 9 13.429688 C 8.648438 12.609375 8.367188 11.8125 8.109375 11.015625 C 8.90625 10.828125 9.75 10.6875 10.640625 10.570312 C 10.359375 11.015625 10.054688 11.484375 9.796875 11.976562 C 9.515625 12.46875 9.257812 12.960938 9 13.429688 Z M 15 7.078125 C 15.5625 7.6875 16.101562 8.34375 16.617188 9.023438 C 16.078125 9 15.539062 8.976562 15 8.976562 C 14.460938 8.976562 13.921875 9 13.382812 9.023438 C 13.898438 8.34375 14.4375 7.6875 15 7.078125 Z M 20.203125 12 L 19.359375 10.59375 C 20.25 10.710938 21.09375 10.851562 21.890625 11.039062 C 21.632812 11.8125 21.351562 12.632812 21 13.453125 C 20.742188 12.960938 20.484375 12.46875 20.203125 12 Z M 7.429688 8.203125 C 7.03125 5.742188 7.359375 4.007812 8.320312 3.445312 C 8.554688 3.304688 8.835938 3.234375 9.140625 3.234375 C 10.546875 3.234375 12.304688 4.382812 14.0625 6.117188 C 13.242188 7.007812 12.421875 8.039062 11.625 9.164062 C 10.265625 9.28125 8.976562 9.492188 7.757812 9.75 C 7.617188 9.210938 7.523438 8.695312 7.429688 8.203125 Z M 1.640625 15 C 1.640625 13.898438 2.976562 12.726562 5.320312 11.859375 C 5.789062 11.671875 6.304688 11.507812 6.820312 11.367188 C 7.195312 12.539062 7.664062 13.78125 8.226562 15.023438 C 7.664062 16.265625 7.171875 17.484375 6.820312 18.65625 C 3.585938 17.71875 1.640625 16.3125 1.640625 15 Z M 8.320312 26.554688 C 7.359375 25.992188 7.03125 24.257812 7.429688 21.796875 C 7.5 21.304688 7.617188 20.789062 7.757812 20.25 C 8.976562 20.53125 10.265625 20.71875 11.625 20.835938 C 12.421875 21.960938 13.242188 22.96875 14.0625 23.882812 C 12.328125 25.59375 10.570312 26.765625 9.140625 26.765625 C 8.835938 26.765625 8.554688 26.695312 8.320312 26.554688 Z M 22.570312 21.796875 C 22.96875 24.257812 22.640625 25.992188 21.679688 26.554688 C 21.445312 26.695312 21.164062 26.765625 20.859375 26.765625 C 19.453125 26.765625 17.695312 25.617188 15.9375 23.882812 C 16.757812 22.992188 17.578125 21.960938 18.375 20.835938 C 19.734375 20.71875 21.023438 20.507812 22.242188 20.25 C 22.382812 20.789062 22.476562 21.304688 22.570312 21.796875 Z M 24.679688 18.140625 C 24.210938 18.328125 23.695312 18.492188 23.179688 18.632812 C 22.804688 17.460938 22.335938 16.21875 21.773438 14.976562 C 22.335938 13.734375 22.828125 12.515625 23.179688 11.34375 C 26.414062 12.28125 28.359375 13.6875 28.359375 15 C 28.359375 16.101562 27 17.273438 24.679688 18.140625 Z M 24.679688 18.140625 "/>
</g>
</svg>
