<?xml version="1.0" encoding="UTF-8"?>
<svg xmlns="http://www.w3.org/2000/svg" xmlns:xlink="http://www.w3.org/1999/xlink" width="30pt" height="30pt" viewBox="0 0 30 30" version="1.1">
<g id="surface1">
<path style=" stroke:none;fill-rule:evenodd;fill:rgb(79.607843%,40%,60%);fill-opacity:1;" d="M 0.285156 13.160156 C 0.285156 13.328125 0.335938 13.433594 0.363281 13.539062 C 0.539062 14.226562 0.917969 14.816406 1.371094 15.355469 C 2.015625 16.125 2.804688 16.742188 3.609375 17.320312 C 4.3125 17.824219 5.027344 18.316406 5.730469 18.816406 C 5.847656 18.902344 5.964844 19 6.09375 19.105469 C 5.980469 19.167969 5.886719 19.21875 5.789062 19.269531 C 4.863281 19.742188 3.96875 20.269531 3.148438 20.90625 C 2.652344 21.292969 2.171875 21.703125 1.832031 22.238281 C 1.289062 23.097656 1.09375 24.015625 1.5 24.992188 C 1.621094 25.28125 1.800781 25.527344 2.054688 25.710938 C 2.140625 25.769531 2.230469 25.828125 2.328125 25.851562 C 2.578125 25.910156 2.828125 25.945312 3.078125 25.992188 L 3.789062 25.992188 C 4.578125 25.921875 5.292969 25.652344 5.9375 25.207031 C 6.949219 24.507812 7.628906 23.574219 7.921875 22.375 C 8.136719 21.5 8.144531 20.628906 7.894531 19.757812 C 7.871094 19.679688 7.839844 19.601562 7.8125 19.523438 C 7.78125 19.445312 7.746094 19.367188 7.703125 19.269531 L 9.3125 18.34375 L 9.339844 18.363281 C 9.308594 18.460938 9.277344 18.554688 9.25 18.652344 C 9.058594 19.351562 8.933594 20.0625 8.976562 20.789062 C 9.027344 21.5625 9.242188 22.289062 9.695312 22.933594 C 10.0625 23.457031 10.933594 23.476562 11.324219 22.949219 C 11.460938 22.765625 11.59375 22.570312 11.695312 22.363281 C 11.957031 21.820312 12.203125 21.265625 12.453125 20.71875 L 12.496094 20.617188 C 12.476562 20.878906 12.457031 21.105469 12.449219 21.335938 C 12.433594 21.691406 12.453125 22.046875 12.574219 22.382812 C 12.679688 22.675781 12.855469 22.890625 13.1875 22.929688 C 13.417969 22.957031 13.597656 22.851562 13.765625 22.71875 C 14.027344 22.511719 14.238281 22.257812 14.394531 21.96875 C 14.839844 21.152344 15.296875 20.339844 15.703125 19.5 C 16.140625 18.59375 16.523438 17.660156 16.925781 16.734375 L 16.996094 16.570312 C 17.089844 16.949219 17.15625 17.316406 17.28125 17.667969 C 17.421875 18.070312 17.601562 18.46875 17.792969 18.851562 C 17.882812 19.035156 17.875 19.152344 17.746094 19.304688 C 17.21875 19.941406 16.699219 20.585938 16.179688 21.230469 C 16.0625 21.375 15.949219 21.519531 15.851562 21.675781 C 15.796875 21.769531 15.757812 21.882812 15.742188 21.992188 C 15.710938 22.203125 15.839844 22.40625 16.066406 22.457031 C 16.269531 22.5 16.488281 22.515625 16.699219 22.5 C 17.425781 22.449219 18.085938 22.191406 18.667969 21.761719 C 19.421875 21.203125 19.664062 20.4375 19.480469 19.535156 C 19.433594 19.289062 19.34375 19.050781 19.257812 18.8125 C 19.222656 18.707031 19.21875 18.632812 19.289062 18.53125 C 19.890625 17.671875 20.40625 16.757812 20.886719 15.820312 C 20.90625 15.785156 20.925781 15.746094 20.957031 15.707031 C 21.113281 16.515625 21.347656 17.296875 21.765625 18.003906 C 21.554688 18.210938 21.339844 18.394531 21.148438 18.601562 C 20.726562 19.054688 20.363281 19.546875 20.171875 20.148438 C 20.089844 20.40625 20.027344 20.667969 20.0625 20.945312 C 20.121094 21.375 20.472656 21.652344 20.894531 21.554688 C 21.796875 21.347656 22.578125 20.921875 23.148438 20.167969 C 23.53125 19.660156 23.566406 19.09375 23.40625 18.5 C 23.359375 18.339844 23.308594 18.179688 23.25 17.996094 C 23.476562 17.925781 23.691406 17.84375 23.917969 17.792969 C 25.082031 17.527344 26.238281 17.574219 27.363281 17.992188 C 28.019531 18.238281 28.550781 18.652344 28.863281 19.300781 C 29.25 20.089844 29.035156 20.84375 28.289062 21.34375 C 28.21875 21.390625 28.140625 21.425781 28.082031 21.484375 C 28.046875 21.519531 28.027344 21.59375 28.035156 21.640625 C 28.039062 21.671875 28.117188 21.707031 28.160156 21.707031 C 28.40625 21.703125 28.605469 21.574219 28.792969 21.445312 C 29.273438 21.113281 29.621094 20.667969 29.699219 20.082031 L 29.710938 20.035156 L 29.695312 19.65625 C 29.6875 19.632812 29.699219 19.609375 29.699219 19.59375 C 29.597656 18.738281 29.140625 18.078125 28.476562 17.558594 C 27.707031 16.957031 26.800781 16.710938 25.839844 16.671875 C 25.058594 16.636719 24.289062 16.753906 23.550781 17.023438 C 23.339844 17.097656 23.132812 17.1875 22.921875 17.273438 C 22.894531 17.222656 22.863281 17.171875 22.835938 17.121094 C 22.621094 16.679688 22.355469 16.253906 22.300781 15.742188 C 22.257812 15.382812 22.207031 15.019531 22.292969 14.664062 C 22.375 14.316406 22.484375 13.980469 22.585938 13.640625 C 22.636719 13.464844 22.601562 13.367188 22.433594 13.289062 C 22.375 13.261719 22.3125 13.238281 22.25 13.226562 C 21.839844 13.167969 21.433594 13.203125 21.039062 13.316406 C 20.898438 13.359375 20.792969 13.4375 20.765625 13.59375 C 20.746094 13.683594 20.710938 13.769531 20.683594 13.855469 C 20.582031 14.222656 20.507812 14.597656 20.339844 14.945312 C 19.917969 15.820312 19.4375 16.664062 18.949219 17.5 C 18.894531 17.589844 18.839844 17.679688 18.769531 17.789062 C 18.597656 17.425781 18.414062 17.101562 18.359375 16.722656 C 18.296875 16.292969 18.246094 15.863281 18.351562 15.4375 C 18.433594 15.121094 18.535156 14.808594 18.632812 14.496094 C 18.675781 14.347656 18.65625 14.269531 18.519531 14.191406 C 18.453125 14.148438 18.375 14.113281 18.300781 14.101562 C 17.875 14.039062 17.453125 14.074219 17.042969 14.207031 C 16.917969 14.246094 16.851562 14.328125 16.8125 14.460938 C 16.695312 14.847656 16.597656 15.246094 16.4375 15.613281 C 15.789062 17.101562 15.121094 18.585938 14.453125 20.070312 C 14.3125 20.378906 14.148438 20.675781 13.992188 20.980469 C 13.953125 21.054688 13.894531 21.121094 13.84375 21.195312 C 13.804688 21.148438 13.789062 21.113281 13.789062 21.082031 C 13.789062 20.890625 13.765625 20.695312 13.804688 20.511719 C 13.914062 19.953125 14.039062 19.398438 14.171875 18.847656 C 14.285156 18.390625 14.410156 17.941406 14.535156 17.488281 C 14.574219 17.335938 14.574219 17.191406 14.464844 17.066406 C 14.285156 16.851562 13.902344 16.804688 13.675781 16.96875 L 13.574219 17.027344 L 13.59375 16.863281 C 13.640625 16.519531 13.652344 16.171875 13.554688 15.832031 C 13.4375 15.40625 13.132812 15.160156 12.691406 15.175781 C 12.484375 15.179688 12.269531 15.214844 12.078125 15.289062 C 11.277344 15.605469 10.660156 16.160156 10.136719 16.828125 C 10.089844 16.890625 10.027344 16.945312 9.960938 16.984375 C 9.28125 17.359375 8.601562 17.730469 7.921875 18.101562 L 7.164062 18.519531 C 6.960938 18.324219 6.777344 18.125 6.566406 17.953125 C 5.929688 17.433594 5.28125 16.921875 4.636719 16.40625 C 4.066406 15.949219 3.511719 15.476562 3.089844 14.871094 C 2.777344 14.421875 2.574219 13.929688 2.554688 13.371094 C 2.527344 12.664062 2.730469 12.015625 3.089844 11.410156 C 3.550781 10.640625 4.183594 10.019531 4.875 9.460938 C 5.605469 8.867188 6.398438 8.363281 7.21875 7.902344 C 8.367188 7.261719 9.550781 6.691406 10.816406 6.316406 C 12.117188 5.929688 13.433594 5.710938 14.792969 5.863281 C 15.328125 5.925781 15.847656 6.046875 16.324219 6.308594 C 16.6875 6.507812 16.988281 6.769531 17.125 7.179688 C 17.265625 7.582031 17.257812 7.988281 17.164062 8.398438 C 16.972656 9.226562 16.515625 9.910156 15.945312 10.519531 C 15.011719 11.519531 13.867188 12.199219 12.582031 12.652344 C 11.839844 12.910156 11.078125 13.074219 10.292969 13.140625 C 9.65625 13.191406 9.027344 13.136719 8.421875 12.914062 C 8.023438 12.765625 7.671875 12.539062 7.390625 12.214844 C 7.34375 12.15625 7.277344 12.089844 7.183594 12.144531 C 7.09375 12.199219 7.078125 12.289062 7.105469 12.375 C 7.160156 12.523438 7.207031 12.675781 7.285156 12.804688 C 7.488281 13.136719 7.78125 13.375 8.101562 13.578125 C 8.722656 13.972656 9.414062 14.105469 10.132812 14.136719 C 11.222656 14.183594 12.285156 14.019531 13.332031 13.730469 C 14.828125 13.3125 16.128906 12.574219 17.171875 11.414062 C 18.039062 10.445312 18.660156 9.351562 18.792969 8.03125 C 18.859375 7.390625 18.789062 6.757812 18.488281 6.171875 C 18.160156 5.535156 17.640625 5.0625 17.019531 4.734375 C 16.113281 4.261719 15.136719 3.984375 14.128906 3.984375 L 13.121094 3.984375 C 11.898438 3.984375 10.71875 4.335938 9.570312 4.75 C 8.703125 5.066406 7.851562 5.441406 7.023438 5.855469 C 5.222656 6.753906 3.546875 7.839844 2.167969 9.332031 C 1.480469 10.074219 0.902344 10.894531 0.566406 11.859375 C 0.46875 12.140625 0.375 12.445312 0.304688 12.738281 M 6.832031 21.179688 C 6.753906 22.222656 6.277344 23.070312 5.503906 23.757812 C 5.070312 24.140625 4.570312 24.417969 3.988281 24.511719 C 3.777344 24.546875 3.5625 24.558594 3.355469 24.46875 C 3.066406 24.34375 3 24.085938 2.992188 23.808594 C 2.984375 23.371094 3.140625 22.972656 3.351562 22.59375 C 3.625 22.101562 4.03125 21.726562 4.460938 21.375 C 5.140625 20.820312 5.878906 20.351562 6.632812 19.910156 L 6.691406 19.886719 C 6.808594 20.320312 6.863281 20.746094 6.832031 21.179688 Z M 12.726562 16.636719 C 12.671875 16.96875 12.601562 17.304688 12.503906 17.628906 C 12.167969 18.746094 11.734375 19.832031 11.269531 20.902344 C 11.179688 21.101562 11.054688 21.28125 10.945312 21.46875 C 10.929688 21.496094 10.902344 21.523438 10.878906 21.546875 C 10.746094 21.679688 10.617188 21.671875 10.546875 21.5 C 10.46875 21.296875 10.417969 21.078125 10.375 20.863281 C 10.347656 20.71875 10.355469 20.566406 10.347656 20.417969 C 10.355469 19.363281 10.675781 18.40625 11.222656 17.515625 C 11.445312 17.148438 11.691406 16.796875 12.066406 16.566406 C 12.179688 16.496094 12.308594 16.4375 12.4375 16.398438 C 12.636719 16.34375 12.761719 16.4375 12.726562 16.636719 Z M 16.75 21.761719 L 18.195312 20.074219 C 18.257812 20.699219 17.191406 21.953125 16.75 21.761719 Z M 21.367188 20.625 C 21.265625 20.683594 21.15625 20.726562 21.050781 20.78125 C 20.953125 20.828125 20.921875 20.78125 20.917969 20.695312 C 20.917969 20.640625 20.925781 20.582031 20.941406 20.527344 C 21.136719 19.839844 21.496094 19.25 22.03125 18.773438 L 22.066406 18.753906 C 22.320312 19.464844 22.027344 20.246094 21.367188 20.625 Z M 21.367188 20.625 "/>
</g>
</svg>
