<?xml version="1.0" encoding="UTF-8"?>
<svg xmlns="http://www.w3.org/2000/svg" xmlns:xlink="http://www.w3.org/1999/xlink" width="30pt" height="30pt" viewBox="0 0 30 30" version="1.1">
<g id="surface1">
<path style=" stroke:none;fill-rule:nonzero;fill:rgb(92.941176%,35.294118%,50.588235%);fill-opacity:1;" d="M 26.210938 4.703125 L 26.210938 8.972656 C 26.210938 9.445312 26.597656 9.832031 27.070312 9.832031 C 27.546875 9.832031 27.929688 9.445312 27.929688 8.972656 L 27.929688 5.191406 Z M 26.210938 4.703125 "/>
<path style=" stroke:none;fill-rule:nonzero;fill:rgb(97.647059%,41.176471%,53.72549%);fill-opacity:1;" d="M 26.449219 9.445312 C 26.410156 10.5 26.113281 13.183594 24.277344 14.714844 C 24.054688 14.898438 24.0625 15.246094 24.285156 15.429688 L 25.21875 16.199219 C 25.574219 16.488281 26.105469 16.378906 26.3125 15.96875 C 26.820312 14.953125 27.589844 12.765625 27.632812 9.503906 C 27.285156 9.800781 26.765625 9.777344 26.449219 9.445312 Z M 26.449219 9.445312 "/>
<path style=" stroke:none;fill-rule:nonzero;fill:rgb(95.686275%,83.137255%,30.588235%);fill-opacity:1;" d="M 14.484375 13.269531 L 8.03125 14.578125 L 0.921875 20.28125 C 0.339844 20.75 0 21.457031 0 22.207031 L 0 27.480469 L 13.824219 16.390625 C 14.773438 15.625 15.023438 14.3125 14.484375 13.269531 Z M 14.484375 13.269531 "/>
<path style=" stroke:none;fill-rule:nonzero;fill:rgb(90.980392%,78.431373%,25.882353%);fill-opacity:1;" d="M 1.347656 21.957031 L 11.386719 13.898438 L 8.03125 14.578125 L 0.921875 20.28125 C 0.339844 20.75 0 21.457031 0 22.207031 L 0 23.765625 C 0.285156 23.066406 0.742188 22.441406 1.347656 21.957031 Z M 1.347656 21.957031 "/>
<path style=" stroke:none;fill-rule:nonzero;fill:rgb(95.686275%,83.137255%,30.588235%);fill-opacity:1;" d="M 22.359375 21.042969 L 16.25 21.667969 L 5.867188 30 L 14.019531 30 C 14.757812 30 15.472656 29.75 16.046875 29.285156 L 21.667969 24.773438 C 22.808594 23.859375 23.078125 22.265625 22.359375 21.042969 Z M 22.359375 21.042969 "/>
<path style=" stroke:none;fill-rule:nonzero;fill:rgb(90.980392%,78.431373%,25.882353%);fill-opacity:1;" d="M 18.9375 21.394531 L 16.25 21.667969 L 5.867188 30 L 8.214844 30 Z M 18.9375 21.394531 "/>
<path style=" stroke:none;fill-rule:nonzero;fill:rgb(95.686275%,83.137255%,30.588235%);fill-opacity:1;" d="M 20.40625 15.171875 L 13.484375 16.660156 L 0 27.460938 L 0 28.65625 C 0 29.398438 0.601562 30 1.34375 30 L 5.871094 30 L 19.761719 18.851562 C 20.886719 17.953125 21.140625 16.371094 20.40625 15.171875 Z M 20.40625 15.171875 "/>
<path style=" stroke:none;fill-rule:nonzero;fill:rgb(97.647059%,41.176471%,53.72549%);fill-opacity:1;" d="M 16.25 21.664062 C 16.25 21.664062 16.15625 22.875 16.753906 23.46875 C 17.351562 24.066406 18.699219 24.191406 19.726562 23.46875 C 20.753906 22.746094 24.6875 19.089844 24.492188 17.558594 C 24.210938 15.324219 19.019531 19.453125 19.019531 19.453125 Z M 16.25 21.664062 "/>
<path style=" stroke:none;fill-rule:nonzero;fill:rgb(92.941176%,35.294118%,50.588235%);fill-opacity:1;" d="M 24.492188 17.558594 C 24.210938 15.324219 19.019531 19.453125 19.019531 19.453125 L 16.25 21.664062 C 16.25 21.664062 16.175781 22.644531 16.597656 23.277344 C 17.976562 22.175781 22.511719 18.253906 24.253906 18.53125 C 24.433594 18.160156 24.527344 17.828125 24.492188 17.558594 Z M 24.492188 17.558594 "/>
<path style=" stroke:none;fill-rule:nonzero;fill:rgb(97.647059%,41.176471%,53.72549%);fill-opacity:1;" d="M 30 0.765625 C 30 0.34375 29.65625 0 29.234375 0 L 25.035156 0 C 24.613281 0 24.269531 0.34375 24.269531 0.765625 L 24.269531 3.640625 C 24.269531 4.046875 24.539062 4.40625 24.933594 4.519531 L 28.984375 5.671875 C 29.492188 5.816406 30 5.433594 30 4.90625 Z M 30 0.765625 "/>
<path style=" stroke:none;fill-rule:nonzero;fill:rgb(92.941176%,35.294118%,50.588235%);fill-opacity:1;" d="M 25.8125 0.484375 C 25.8125 0.300781 25.878906 0.132812 25.988281 0 L 25.035156 0 C 24.613281 0 24.269531 0.34375 24.269531 0.765625 L 24.269531 3.640625 C 24.269531 4.046875 24.539062 4.40625 24.933594 4.519531 L 25.828125 4.773438 C 25.800781 4.621094 25.820312 4.847656 25.8125 0.484375 Z M 25.8125 0.484375 "/>
<path style=" stroke:none;fill-rule:nonzero;fill:rgb(90.980392%,78.431373%,25.882353%);fill-opacity:1;" d="M 1.578125 27.980469 L 16.492188 16.015625 L 13.484375 16.660156 L 0 27.460938 L 0 28.65625 C 0 28.976562 0.109375 29.269531 0.296875 29.5 C 0.617188 28.921875 1.050781 28.402344 1.578125 27.980469 Z M 1.578125 27.980469 "/>
<path style=" stroke:none;fill-rule:nonzero;fill:rgb(97.647059%,41.176471%,53.72549%);fill-opacity:1;" d="M 8.03125 14.578125 C 8.03125 14.578125 7.941406 15.738281 8.511719 16.308594 C 9.082031 16.878906 10.367188 17 11.34375 16.308594 C 12.320312 15.617188 16.070312 12.113281 15.886719 10.648438 C 15.617188 8.507812 10.671875 12.460938 10.671875 12.460938 Z M 8.03125 14.578125 "/>
<path style=" stroke:none;fill-rule:nonzero;fill:rgb(92.941176%,35.294118%,50.588235%);fill-opacity:1;" d="M 11.09375 14.136719 C 11.09375 14.136719 14.167969 11.679688 15.601562 11.6875 C 15.808594 11.289062 15.921875 10.929688 15.886719 10.648438 C 15.617188 8.507812 10.671875 12.460938 10.671875 12.460938 L 8.03125 14.578125 C 8.03125 14.578125 7.949219 15.664062 8.460938 16.25 Z M 11.09375 14.136719 "/>
<path style=" stroke:none;fill-rule:nonzero;fill:rgb(97.647059%,41.176471%,53.72549%);fill-opacity:1;" d="M 13.484375 16.660156 C 13.484375 16.660156 13.390625 17.890625 13.996094 18.492188 C 14.597656 19.097656 15.957031 19.226562 16.992188 18.492188 C 18.03125 17.761719 22 14.046875 21.804688 12.496094 C 21.523438 10.226562 16.28125 14.417969 16.28125 14.417969 Z M 13.484375 16.660156 "/>
<path style=" stroke:none;fill-rule:nonzero;fill:rgb(92.941176%,35.294118%,50.588235%);fill-opacity:1;" d="M 16.558594 15.960938 C 16.558594 15.960938 20.246094 13.011719 21.601562 13.398438 C 21.757812 13.054688 21.835938 12.746094 21.804688 12.496094 C 21.523438 10.226562 16.28125 14.417969 16.28125 14.417969 L 13.484375 16.660156 C 13.484375 16.660156 13.417969 17.554688 13.773438 18.195312 Z M 16.558594 15.960938 "/>
</g>
</svg>
