<?xml version="1.0" encoding="UTF-8"?>
<svg xmlns="http://www.w3.org/2000/svg" xmlns:xlink="http://www.w3.org/1999/xlink" width="30pt" height="30pt" viewBox="0 0 30 30" version="1.1">
<g id="surface1">
<path style=" stroke:none;fill-rule:nonzero;fill:rgb(96.862745%,87.45098%,11.764706%);fill-opacity:1;" d="M 4.5 0 L 25.5 0 C 27.984375 0 30 2.015625 30 4.5 L 30 25.5 C 30 27.984375 27.984375 30 25.5 30 L 4.5 30 C 2.015625 30 0 27.984375 0 25.5 L 0 4.5 C 0 2.015625 2.015625 0 4.5 0 Z M 4.5 0 "/>
<path style=" stroke:none;fill-rule:nonzero;fill:rgb(0%,0%,0%);fill-opacity:1;" d="M 18.984375 21.679688 C 19.570312 22.675781 20.390625 23.378906 21.738281 23.378906 C 22.910156 23.378906 23.671875 22.792969 23.671875 21.972656 C 23.671875 21.035156 22.910156 20.683594 21.621094 20.097656 L 20.917969 19.804688 C 18.867188 18.925781 17.519531 17.871094 17.519531 15.585938 C 17.519531 13.476562 19.101562 11.835938 21.621094 11.835938 C 23.4375 11.835938 24.726562 12.480469 25.605469 14.121094 L 23.4375 15.527344 C 22.96875 14.648438 22.441406 14.296875 21.621094 14.296875 C 20.800781 14.296875 20.273438 14.824219 20.273438 15.527344 C 20.273438 16.347656 20.800781 16.699219 22.03125 17.226562 L 22.734375 17.519531 C 25.136719 18.574219 26.484375 19.570312 26.484375 21.972656 C 26.484375 24.492188 24.492188 25.898438 21.796875 25.898438 C 19.160156 25.898438 17.460938 24.667969 16.640625 23.027344 Z M 9.023438 21.914062 C 9.492188 22.675781 9.84375 23.378906 10.839844 23.378906 C 11.777344 23.378906 12.363281 23.027344 12.363281 21.621094 L 12.363281 11.894531 L 15.175781 11.894531 L 15.175781 21.503906 C 15.175781 24.433594 13.476562 25.722656 10.957031 25.722656 C 8.671875 25.722656 7.382812 24.550781 6.738281 23.144531 Z M 9.023438 21.914062 "/>
</g>
</svg>
