<?xml version="1.0" encoding="UTF-8"?>
<svg xmlns="http://www.w3.org/2000/svg" xmlns:xlink="http://www.w3.org/1999/xlink" width="30pt" height="40pt" viewBox="0 0 30 40" version="1.1">
<g id="surface1">
<path style=" stroke:none;fill-rule:nonzero;fill:rgb(32.54902%,50.980392%,63.137255%);fill-opacity:1;" d="M 9.671875 30.921875 C 9.671875 30.921875 8.125 31.808594 10.773438 32.109375 C 13.980469 32.46875 15.617188 32.417969 19.152344 31.757812 C 19.152344 31.757812 20.082031 32.332031 21.378906 32.832031 C 13.457031 36.179688 3.449219 32.636719 9.671875 30.921875 M 8.703125 26.550781 C 8.703125 26.550781 6.96875 27.816406 9.621094 28.085938 C 13.042969 28.4375 15.75 28.464844 20.429688 27.574219 C 20.429688 27.574219 21.078125 28.222656 22.097656 28.578125 C 12.519531 31.339844 1.851562 28.792969 8.703125 26.550781 "/>
<path style=" stroke:none;fill-rule:nonzero;fill:rgb(90.588235%,43.529412%,0%);fill-opacity:1;" d="M 16.867188 19.132812 C 18.816406 21.351562 16.351562 23.347656 16.351562 23.347656 C 16.351562 23.347656 21.308594 20.824219 19.03125 17.660156 C 16.90625 14.714844 15.277344 13.25 24.101562 8.199219 C 24.101562 8.199219 10.25 11.613281 16.867188 19.132812 "/>
<path style=" stroke:none;fill-rule:nonzero;fill:rgb(32.54902%,50.980392%,63.137255%);fill-opacity:1;" d="M 27.34375 34.15625 C 27.34375 34.15625 28.488281 35.085938 26.082031 35.804688 C 21.511719 37.171875 7.050781 37.585938 3.035156 35.859375 C 1.589844 35.238281 4.296875 34.378906 5.148438 34.199219 C 6.039062 34.007812 6.546875 34.042969 6.546875 34.042969 C 4.941406 32.929688 -3.832031 36.234375 2.089844 37.183594 C 18.242188 39.769531 31.53125 36.019531 27.34375 34.15625 M 10.417969 22.019531 C 10.417969 22.019531 3.0625 23.746094 7.8125 24.371094 C 9.816406 24.636719 13.816406 24.574219 17.539062 24.265625 C 20.585938 24.015625 23.640625 23.476562 23.640625 23.476562 C 23.640625 23.476562 22.566406 23.929688 21.789062 24.453125 C 14.320312 26.390625 -0.105469 25.488281 4.046875 23.507812 C 7.558594 21.832031 10.417969 22.019531 10.417969 22.019531 M 23.609375 29.296875 C 31.203125 25.40625 27.691406 21.664062 25.242188 22.167969 C 24.640625 22.292969 24.375 22.398438 24.375 22.398438 C 24.375 22.398438 24.597656 22.054688 25.023438 21.902344 C 29.871094 20.222656 33.597656 26.863281 23.457031 29.492188 C 23.457031 29.492188 23.574219 29.390625 23.609375 29.296875 "/>
<path style=" stroke:none;fill-rule:nonzero;fill:rgb(90.588235%,43.529412%,0%);fill-opacity:1;" d="M 19.03125 0.0429688 C 19.03125 0.0429688 23.238281 4.191406 15.042969 10.574219 C 8.476562 15.695312 13.546875 18.613281 15.042969 21.949219 C 11.207031 18.535156 8.394531 15.527344 10.28125 12.730469 C 13.050781 8.625 20.730469 6.636719 19.03125 0.0429688 "/>
<path style=" stroke:none;fill-rule:nonzero;fill:rgb(32.54902%,50.980392%,63.137255%);fill-opacity:1;" d="M 11.164062 39.84375 C 18.449219 40.304688 29.640625 39.589844 29.90625 36.1875 C 29.90625 36.1875 29.398438 37.476562 23.882812 38.503906 C 17.664062 39.65625 9.992188 39.523438 5.441406 38.78125 C 5.441406 38.78125 6.371094 39.542969 11.164062 39.84375 "/>
</g>
</svg>
