<?xml version="1.0" encoding="UTF-8"?>
<svg xmlns="http://www.w3.org/2000/svg" xmlns:xlink="http://www.w3.org/1999/xlink" width="30pt" height="30pt" viewBox="0 0 30 30" version="1.1">
<g id="surface1">
<path style=" stroke:none;fill-rule:nonzero;fill:rgb(0.784314%,46.666667%,74.117647%);fill-opacity:1;" d="M 15.03125 3.125 C 14.058594 3.128906 13.382812 3.214844 12.570312 3.355469 C 10.164062 3.773438 9.726562 4.652344 9.726562 6.273438 L 9.726562 8.75 L 15.351562 8.75 L 15.351562 10 L 6.792969 10 C 5.144531 10 3.703125 10.777344 3.246094 12.636719 C 2.730469 14.773438 2.707031 16.109375 3.246094 18.339844 C 3.65625 20.003906 4.558594 21.25 6.207031 21.25 L 8.476562 21.25 L 8.476562 18.058594 C 8.476562 16.207031 10.15625 14.375 12.078125 14.375 L 16.601562 14.375 C 18.179688 14.375 19.726562 13.210938 19.726562 11.640625 L 19.726562 6.273438 C 19.726562 4.75 18.628906 3.609375 17.089844 3.351562 C 17.128906 3.347656 15.992188 3.121094 15.03125 3.125 Z M 11.914062 5.625 C 12.425781 5.625 12.851562 6.046875 12.851562 6.5625 C 12.851562 7.085938 12.425781 7.5 11.914062 7.5 C 11.390625 7.5 10.976562 7.085938 10.976562 6.5625 C 10.976562 6.050781 11.390625 5.625 11.914062 5.625 Z M 11.914062 5.625 "/>
<path style=" stroke:none;fill-rule:nonzero;fill:rgb(100%,75.686275%,2.745098%);fill-opacity:1;" d="M 14.421875 26.875 C 15.394531 26.871094 16.070312 26.785156 16.882812 26.644531 C 19.289062 26.226562 19.726562 25.347656 19.726562 23.726562 L 19.726562 21.25 L 14.101562 21.25 L 14.101562 20 L 22.660156 20 C 24.308594 20 25.75 19.222656 26.207031 17.363281 C 26.722656 15.226562 26.746094 13.890625 26.207031 11.660156 C 25.796875 9.996094 24.894531 8.75 23.246094 8.75 L 20.976562 8.75 L 20.976562 11.941406 C 20.976562 13.792969 19.296875 15.625 17.375 15.625 L 12.851562 15.625 C 11.273438 15.625 9.726562 16.789062 9.726562 18.359375 L 9.726562 23.726562 C 9.726562 25.25 10.824219 26.390625 12.363281 26.648438 C 12.324219 26.652344 13.460938 26.878906 14.421875 26.875 Z M 17.539062 24.375 C 17.027344 24.375 16.601562 23.953125 16.601562 23.4375 C 16.601562 22.914062 17.027344 22.5 17.539062 22.5 C 18.0625 22.5 18.476562 22.914062 18.476562 23.4375 C 18.476562 23.949219 18.0625 24.375 17.539062 24.375 Z M 17.539062 24.375 "/>
</g>
</svg>
