<?xml version="1.0" encoding="UTF-8"?>
<svg xmlns="http://www.w3.org/2000/svg" xmlns:xlink="http://www.w3.org/1999/xlink" width="30pt" height="30pt" viewBox="0 0 30 30" version="1.1">
<g id="surface1">
<path style=" stroke:none;fill-rule:nonzero;fill:rgb(19.215686%,47.058824%,77.647059%);fill-opacity:1;" d="M 2.929688 0 L 27.070312 0 C 28.6875 0 30 1.3125 30 2.929688 L 30 27.070312 C 30 28.6875 28.6875 30 27.070312 30 L 2.929688 30 C 1.3125 30 0 28.6875 0 27.070312 L 0 2.929688 C 0 1.3125 1.3125 0 2.929688 0 Z M 2.929688 0 "/>
<path style=" stroke:none;fill-rule:nonzero;fill:rgb(19.215686%,47.058824%,77.647059%);fill-opacity:1;" d="M 2.929688 0 L 27.070312 0 C 28.6875 0 30 1.3125 30 2.929688 L 30 27.070312 C 30 28.6875 28.6875 30 27.070312 30 L 2.929688 30 C 1.3125 30 0 28.6875 0 27.070312 L 0 2.929688 C 0 1.3125 1.3125 0 2.929688 0 Z M 2.929688 0 "/>
<path style=" stroke:none;fill-rule:evenodd;fill:rgb(100%,100%,100%);fill-opacity:1;" d="M 18.570312 23.871094 L 18.570312 26.804688 C 19.046875 27.050781 19.613281 27.234375 20.261719 27.355469 C 20.914062 27.476562 21.601562 27.539062 22.320312 27.539062 C 23.023438 27.539062 23.691406 27.472656 24.324219 27.335938 C 24.957031 27.203125 25.511719 26.980469 25.988281 26.671875 C 26.464844 26.363281 26.84375 25.960938 27.121094 25.460938 C 27.398438 24.964844 27.539062 24.347656 27.539062 23.617188 C 27.539062 23.085938 27.460938 22.617188 27.300781 22.21875 C 27.140625 21.816406 26.914062 21.460938 26.613281 21.148438 C 26.3125 20.839844 25.953125 20.558594 25.535156 20.3125 C 25.117188 20.0625 24.644531 19.832031 24.117188 19.609375 C 23.734375 19.453125 23.386719 19.296875 23.082031 19.148438 C 22.777344 18.996094 22.515625 18.84375 22.304688 18.6875 C 22.089844 18.53125 21.925781 18.367188 21.808594 18.195312 C 21.691406 18.019531 21.632812 17.824219 21.632812 17.601562 C 21.632812 17.402344 21.683594 17.21875 21.789062 17.058594 C 21.894531 16.894531 22.039062 16.757812 22.230469 16.640625 C 22.417969 16.523438 22.652344 16.433594 22.925781 16.371094 C 23.203125 16.304688 23.507812 16.273438 23.84375 16.273438 C 24.089844 16.273438 24.347656 16.292969 24.617188 16.328125 C 24.890625 16.367188 25.164062 16.421875 25.4375 16.5 C 25.714844 16.574219 25.980469 16.671875 26.242188 16.785156 C 26.5 16.902344 26.742188 17.039062 26.960938 17.191406 L 26.960938 14.449219 C 26.515625 14.277344 26.027344 14.152344 25.5 14.070312 C 24.96875 13.988281 24.363281 13.945312 23.679688 13.945312 C 22.980469 13.945312 22.320312 14.019531 21.699219 14.167969 C 21.074219 14.320312 20.527344 14.554688 20.050781 14.871094 C 19.578125 15.1875 19.203125 15.59375 18.929688 16.085938 C 18.652344 16.578125 18.515625 17.164062 18.515625 17.851562 C 18.515625 18.722656 18.769531 19.46875 19.273438 20.085938 C 19.777344 20.703125 20.542969 21.226562 21.570312 21.652344 C 21.972656 21.820312 22.347656 21.980469 22.695312 22.140625 C 23.046875 22.300781 23.347656 22.464844 23.601562 22.636719 C 23.855469 22.804688 24.054688 22.992188 24.199219 23.195312 C 24.347656 23.394531 24.421875 23.625 24.421875 23.882812 C 24.421875 24.070312 24.375 24.246094 24.285156 24.410156 C 24.191406 24.570312 24.054688 24.710938 23.867188 24.832031 C 23.679688 24.949219 23.449219 25.042969 23.167969 25.109375 C 22.890625 25.175781 22.566406 25.210938 22.191406 25.210938 C 21.558594 25.210938 20.925781 25.097656 20.304688 24.875 C 19.679688 24.652344 19.101562 24.320312 18.570312 23.871094 Z M 13.640625 16.644531 L 17.402344 16.644531 L 17.402344 14.238281 L 6.914062 14.238281 L 6.914062 16.644531 L 10.660156 16.644531 L 10.660156 27.363281 L 13.640625 27.363281 Z M 13.640625 16.644531 "/>
</g>
</svg>
